<?xml version="1.0" encoding="UTF-8" standalone="no"?>
<!-- Created with Inkscape (http://www.inkscape.org/) -->

<svg
   version="1.1"
   id="svg32"
   width="826.78156"
   height="826.7771"
   viewBox="0 0 826.78155 826.7771"
   sodipodi:docname="logo_complete.svg"
   inkscape:version="1.2.1 (9c6d41e410, 2022-07-14, custom)"
   inkscape:export-filename="logo.svg"
   inkscape:export-xdpi="96"
   inkscape:export-ydpi="96"
   xmlns:inkscape="http://www.inkscape.org/namespaces/inkscape"
   xmlns:sodipodi="http://sodipodi.sourceforge.net/DTD/sodipodi-0.dtd"
   xmlns:xlink="http://www.w3.org/1999/xlink"
   xmlns="http://www.w3.org/2000/svg"
   xmlns:svg="http://www.w3.org/2000/svg"
   xmlns:rdf="http://www.w3.org/1999/02/22-rdf-syntax-ns#"
   xmlns:cc="http://creativecommons.org/ns#">
  <defs
     id="defs36" />
  <sodipodi:namedview
     id="namedview34"
     pagecolor="#505050"
     bordercolor="#ffffff"
     borderopacity="1"
     inkscape:showpageshadow="0"
     inkscape:pageopacity="0"
     inkscape:pagecheckerboard="1"
     inkscape:deskcolor="#505050"
     showgrid="false"
     showguides="true"
     inkscape:zoom="0.70710678"
     inkscape:cx="329.51176"
     inkscape:cy="380.42345"
     inkscape:window-width="1918"
     inkscape:window-height="1173"
     inkscape:window-x="0"
     inkscape:window-y="0"
     inkscape:window-maximized="1"
     inkscape:current-layer="g3603">
    <sodipodi:guide
       position="413.38589,413.38664"
       orientation="0.70710678,-0.70710678"
       id="guide387"
       inkscape:locked="false" />
    <sodipodi:guide
       position="413.38589,413.38664"
       orientation="0,1"
       id="guide391"
       inkscape:locked="false" />
    <sodipodi:guide
       position="413.38589,413.38664"
       orientation="-0.70710678,-0.70710678"
       id="guide393"
       inkscape:locked="false" />
  </sodipodi:namedview>
  <g
     inkscape:groupmode="layer"
     inkscape:label="Image"
     id="g38"
     transform="translate(12.240052,46.06893)">
    <g
       id="g3603"
       inkscape:label="logo-complete-v2"
       transform="translate(254.75097,-1142.1556)"
       style="display:inline"
       inkscape:export-filename="g3603.png"
       inkscape:export-xdpi="96"
       inkscape:export-ydpi="96">
      <path
         id="path1823"
         style="display:inline;fill:#ffffff;stroke:#000000;stroke-width:5;stroke-dasharray:none;stroke-opacity:1"
         inkscape:label="circle4"
         d="m 146.38281,1194.6738 c -3.7359,0.075 -7.47512,0.043 -11.20792,0.2251 -4.55772,0.1398 -9.10676,0.4353 -13.65367,0.7714 -4.06662,0.3525 -8.13621,0.7107 -12.18722,1.2169 -4.59633,0.5238 -9.17074,1.2057 -13.739982,1.9248 -3.990641,0.6816 -7.983889,1.3676 -11.946009,2.2022 -4.504772,0.8961 -8.975902,1.9423 -13.437458,3.0311 -3.985914,1.0236 -7.973147,2.0556 -11.916755,3.2341 -4.415958,1.2628 -8.783615,2.6799 -13.140503,4.1315 -3.823419,1.3303 -7.649419,2.6637 -11.420341,4.1382 -4.327477,1.6354 -8.593907,3.4208 -12.846879,5.2396 -3.701742,1.6414 -7.404384,3.2891 -11.0424061,5.0688 -4.1775965,1.9867 -8.282006,4.1181 -12.3698428,6.2822 -3.5527942,1.9408 -7.1062021,3.8873 -10.5832701,5.9619 -3.999185,2.3258 -7.914103,4.7885 -11.809605,7.283 -3.381425,2.2275 -6.763601,4.4601 -10.056811,6.8171 -3.764389,2.6304 -7.439913,5.3816 -11.088183,8.17 -3.238482,2.5403 -6.475595,5.0878 -9.614751,7.7508 -3.536326,2.9297 -6.966098,5.9818 -10.373075,9.06 -2.991992,2.7777 -5.984008,5.5601 -8.8672,8.4514 -3.281706,3.2122 -6.448124,6.5366 -9.588893,9.8859 -2.728492,2.9916 -5.461033,5.984 -8.075275,9.0768 -3.026705,3.4983 -5.929656,7.0982 -8.803511,10.7224 -2.47514,3.2045 -4.94855,6.4145 -7.29828,9.7128 -2.72711,3.7367 -5.32381,7.5633 -7.88927,11.4121 -2.20107,3.399 -4.40091,6.8027 -6.47266,10.2827 -2.40967,3.9484 -4.6818,7.9763 -6.92005,12.0236 -1.90972,3.5702 -3.82332,7.142 -5.59945,10.7811 -2.07569,4.1344 -4.00567,8.3376 -5.90216,12.5566 -1.62164,3.7464 -3.24646,7.495 -4.72698,11.3001 -1.70329,4.2288 -3.25821,8.5131 -4.77676,12.811 -1.32316,3.8975 -2.63869,7.8012 -3.80967,11.7478 -1.35848,4.387 -2.5608,8.8182 -3.72874,13.2591 -0.98504,3.9615 -1.96864,7.9267 -2.80134,11.9236 -0.98333,4.4524 -1.81311,8.9347 -2.60332,13.4248 -0.65726,4.0283 -1.30946,8.0608 -1.81355,12.1117 -0.62121,4.5841 -1.08281,9.1858 -1.50676,13.7918 -0.3216,4.0703 -0.63677,8.1444 -0.80041,12.2248 -0.23985,4.5863 -0.31738,9.1769 -0.36018,13.7687 0.0178,4.0482 0.0365,8.0998 0.20757,12.145 0.14324,4.591 0.43744,9.1735 0.77705,13.7536 0.35251,4.0672 0.71087,8.1375 1.21703,12.1891 0.52347,4.5957 1.20536,9.1695 1.92461,13.7381 0.68169,3.9906 1.3676,7.9839 2.20227,11.946 0.90229,4.5374 1.95801,9.0404 3.05258,13.5347 1.02012,3.9525 2.04218,7.908 3.21258,11.8195 1.26308,4.4156 2.67932,8.7834 4.12978,13.1404 1.33006,3.8238 2.66575,7.6492 4.13996,11.4204 1.63534,4.3275 3.42077,8.5939 5.23958,12.8469 1.64147,3.7018 3.28678,7.4055 5.06763,11.043 1.98792,4.177 4.11937,8.2814 6.28336,12.3693 1.92451,3.5237 3.85361,7.0487 5.9097,10.498 2.34441,4.0264 4.82113,7.9715 7.33336,11.8947 2.24876,3.4075 4.49934,6.8176 6.87599,10.1377 2.60964,3.7387 5.34443,7.3854 8.11274,11.0076 2.54076,3.2381 5.08621,6.4769 7.750175,9.6153 2.930073,3.5354 5.982291,6.9644 9.060771,10.3705 2.777738,2.9919 5.557731,5.9863 8.449524,8.8691 3.189473,3.2579 6.488474,6.4033 9.815054,9.5202 3.03711,2.7767 6.082516,5.5494 9.225228,8.2071 3.471203,3.007 7.04742,5.8865 10.644765,8.7403 3.204502,2.4752 6.414537,4.9486 9.712877,7.2983 3.736698,2.7271 7.563267,5.3238 11.412102,7.8893 3.399002,2.2011 6.802675,4.4009 10.282693,6.4727 3.9484,2.4096 7.9762293,4.6818 12.0236063,6.92 3.59963435,1.9252 7.201665,3.8529 10.8714812,5.6423 4.1036975,2.0626 8.2780415,3.9755 12.4661385,5.8593 3.715549,1.6084 7.43341,3.2199 11.206533,4.6899 4.260772,1.7134 8.575131,3.2838 12.904654,4.8136 3.897302,1.3237 7.801192,2.6388 11.74777,3.8099 4.387022,1.3585 8.818205,2.5608 13.259118,3.7288 3.961448,0.985 7.926655,1.9686 11.923614,2.8013 4.452348,0.9833 8.93468,1.8131 13.424754,2.6033 4.028294,0.6573 8.060762,1.3095 12.111692,1.8136 4.58412,0.6212 9.18582,1.0828 13.79178,1.5067 4.07028,0.3216 8.14446,0.6368 12.22481,0.8004 4.58563,0.2399 9.17565,0.3172 13.76673,0.3602 4.04892,-0.018 8.10109,-0.036 12.14703,-0.2076 4.62359,-0.1439 9.23853,-0.4424 13.85133,-0.7822 4.03371,-0.3541 8.07101,-0.7058 12.08942,-1.2097 4.59648,-0.5234 9.17086,-1.2062 13.74002,-1.9265 3.99056,-0.6821 7.98387,-1.3677 11.94597,-2.2025 4.53738,-0.9023 9.04038,-1.958 13.53467,-3.0526 3.92038,-1.0116 7.84419,-2.0232 11.72408,-3.1828 4.44706,-1.2743 8.84753,-2.6976 13.2359,-4.1595 3.82378,-1.3302 7.65007,-2.6633 11.42088,-4.1388 4.32699,-1.6366 8.59338,-3.4221 12.84641,-5.2408 3.70155,-1.6412 7.40474,-3.287 11.0424,-5.0668 4.1776,-1.9867 8.28201,-4.1181 12.36985,-6.2822 3.58244,-1.9572 7.1657,-3.9198 10.67076,-6.0138 3.9708,-2.3072 7.85497,-4.7552 11.72218,-7.231 3.38127,-2.2277 6.76357,-4.4601 10.05674,-6.8172 3.76439,-2.6304 7.43991,-5.3816 11.08818,-8.17 3.23849,-2.5403 6.4756,-5.0878 9.61476,-7.7508 3.53632,-2.9297 6.96609,-5.9818 10.37307,-9.0601 2.96776,-2.7547 5.93495,-5.5148 8.79649,-8.3806 3.30505,-3.2366 6.49777,-6.5825 9.66144,-9.9567 2.7284,-2.9911 5.45923,-5.9845 8.07344,-9.0767 3.02673,-3.4988 5.93046,-7.0986 8.80532,-10.7225 2.49567,-3.2307 4.98771,-6.4685 7.3556,-9.7948 2.68845,-3.6823 5.24976,-7.4525 7.77641,-11.247 2.22013,-3.4259 4.43815,-6.8572 6.52701,-10.3654 2.40903,-3.9488 4.68111,-7.9766 6.91943,-12.024 1.90972,-3.5701 3.82332,-7.1419 5.59945,-10.7811 2.07548,-4.1348 4.0063,-8.3378 5.90392,-12.5566 1.60884,-3.7153 3.22092,-7.4329 4.69055,-11.2062 1.72601,-4.2917 3.30501,-8.6384 4.84694,-12.999 1.29723,-3.8357 2.59506,-7.6748 3.7469,-11.5574 1.36588,-4.4198 2.58115,-8.8821 3.75774,-13.3554 0.98555,-3.9613 1.96933,-7.9265 2.80183,-11.9235 0.98304,-4.4524 1.8128,-8.9348 2.60304,-13.4248 0.65715,-4.0282 1.3076,-8.0609 1.81177,-12.1117 0.62104,-4.5841 1.08262,-9.1858 1.50659,-13.7918 0.32204,-4.0696 0.63901,-8.1431 0.80231,-12.2229 0.23792,-4.5529 0.31695,-9.1102 0.35715,-13.6686 0.20098,-41.9548 -8.16757,-83.9222 -24.3741,-122.6171 -16.34468,-39.1412 -40.7224,-74.8972 -71.17642,-104.4215 -29.16247,-28.3271 -63.87547,-50.9097 -101.59348,-66.0835 -37.27687,-15.0411 -77.45867,-22.8269 -117.6555,-22.8099 z m -9.78906,-95.9804 v -1e-4 c 0.69849,-0.01 1.39698,-0.015 2.09547,-0.025 8.32501,-0.1627 16.68312,-0.087 24.95195,0.2707 8.3616,0.3523 16.69203,0.9581 24.98045,1.814 8.24943,0.8514 16.48826,1.9572 24.6222,3.3002 12.28044,2.0222 24.49933,4.6137 36.49992,7.7358 26.03568,6.756 51.48104,16.1268 75.64069,27.823 29.77321,14.3996 57.81849,32.4382 83.24327,53.5256 4.72309,3.9084 9.50347,8.0658 14.01097,12.1534 6.07682,5.527 11.99718,11.2268 17.73407,17.1061 6.51347,6.6667 12.83568,13.6023 18.90656,20.7299 5.33335,6.2706 10.59579,12.8335 15.51097,19.3809 16.13671,21.4401 30.18765,44.5542 41.81129,68.6776 11.06549,22.9933 19.99637,47.0144 26.61515,71.6588 0.88495,3.29 1.74202,6.6556 2.54314,9.9579 1.44077,5.9535 2.79373,12.147 3.95695,18.1216 2.41872,12.447 4.26693,24.9563 5.52945,37.5974 0.82043,8.1129 1.38139,16.3 1.72055,24.4886 0.23563,6.3795 0.38853,12.8383 0.29663,19.272 -0.0158,5.1776 -0.18226,10.3517 -0.38853,15.5248 -0.22965,4.5456 -0.47023,9.0934 -0.84601,13.6298 -0.38993,5.213 -0.92784,10.4119 -1.50811,15.6068 -0.56279,4.5839 -1.13239,9.1699 -1.84751,13.7331 -0.75127,5.1213 -1.65626,10.2167 -2.59496,15.3064 -0.87719,4.4665 -1.75739,8.9351 -2.77871,13.3713 -1.12465,5.0885 -2.39209,10.1424 -3.70211,15.186 -1.21218,4.4576 -2.42413,8.9181 -3.7838,13.3334 -1.46778,4.9469 -3.08156,9.8471 -4.73145,14.7357 -1.53578,4.3908 -3.07869,8.7821 -4.75976,13.12 -1.80908,4.8141 -3.766,9.5689 -5.75188,14.3123 -1.81419,4.1944 -3.63097,8.3907 -5.58119,12.5243 -2.16443,4.702 -4.46428,9.3382 -6.80009,13.957 -2.15012,4.1451 -4.313,8.2868 -6.60368,12.3565 -2.46898,4.4933 -5.07368,8.908 -7.70581,13.3071 -2.41569,3.9363 -4.84193,7.8696 -7.38639,11.7246 -2.80039,4.3338 -5.73119,8.5794 -8.68993,12.8061 -2.70981,3.7815 -5.42838,7.56 -8.26375,11.249 -3.06343,4.0701 -6.24853,8.0445 -9.46033,11.998 -2.9599,3.5653 -5.9294,7.1264 -9.00623,10.592 -3.4255,3.9285 -6.96463,7.7538 -10.53072,11.5545 -3.17739,3.3053 -6.35651,6.6128 -9.64078,9.8127 -3.63564,3.615 -7.37578,7.1204 -11.14171,10.5987 -3.43671,3.1084 -6.88207,6.2113 -10.42146,9.203 -3.92369,3.3794 -7.94327,6.6426 -11.98818,9.8752 -3.6652,2.8649 -7.33868,5.7237 -11.09888,8.4636 -4.11199,3.0624 -8.31682,5.9945 -12.53911,8.902 -3.77685,2.5404 -7.56056,5.0755 -11.4181,7.4925 -4.39244,2.8016 -8.86089,5.4786 -13.3521,8.1182 -4.02017,2.3076 -8.04897,4.6057 -12.14437,6.7781 -4.54965,2.4687 -9.17166,4.7971 -13.8087,7.0963 -4.08762,1.9679 -8.17885,3.9345 -12.32813,5.7701 -4.76105,2.1564 -9.58088,4.1756 -14.41756,6.1554 -4.32407,1.7152 -8.65407,3.4233 -13.03382,4.9927 -4.80887,1.7795 -9.66918,3.4101 -14.53977,5.0113 -4.38761,1.3854 -8.77843,2.7699 -13.20949,4.0111 -4.97278,1.4434 -9.98452,2.7414 -15.00656,4.001 -4.42733,1.057 -8.85734,2.1146 -13.31688,3.0285 -5.11109,1.0946 -10.25023,2.0438 -15.3974,2.9513 -4.5897,0.7574 -9.18365,1.506 -13.7966,2.1101 -5.05912,0.7148 -10.13686,1.2733 -15.21866,1.7985 -4.64978,0.4318 -9.30325,0.8534 -13.96557,1.1266 -5.1152,0.3531 -10.23794,0.5473 -15.36215,0.7115 -4.59979,0.093 -9.20234,0.1847 -13.80325,0.1267 -5.17832,-0.016 -10.35305,-0.1825 -15.52683,-0.3887 -4.54627,-0.2296 -9.09471,-0.4703 -13.63171,-0.8461 -5.21165,-0.39 -10.40928,-0.927 -15.602886,-1.5062 -4.617782,-0.5657 -9.236947,-1.1432 -13.833638,-1.8641 -5.055752,-0.7397 -10.085389,-1.6344 -15.109515,-2.5621 -4.615271,-0.9032 -9.2319,-1.8139 -13.813971,-2.875 -4.94243,-1.0864 -9.84707,-2.3283 -14.74483,-3.5988 -4.522692,-1.2261 -9.046549,-2.4585 -13.525483,-3.8375 -4.915513,-1.4563 -9.783136,-3.0625 -14.640456,-4.7009 -4.3909568,-1.536 -8.7827322,-3.0784 -13.1204516,-4.7605 -4.7991512,-1.8048 -9.5399201,-3.7552 -14.2688404,-5.7355 -4.269873,-1.8467 -8.542027,-3.6952 -12.748481,-5.6835 -4.657882,-2.1425 -9.24697,-4.426 -13.822275,-6.7385 -4.128221,-2.1445 -8.255455,-4.2969 -12.309958,-6.5788 -4.493368,-2.4687 -8.908121,-5.0734 -13.307177,-7.7056 -3.936351,-2.4157 -7.869563,-4.8419 -11.724607,-7.3864 -4.334656,-2.8008 -8.580829,-5.7323 -12.808097,-8.6918 -3.727088,-2.6704 -7.449672,-5.3516 -11.088294,-8.1421 -4.17596,-3.1445 -8.25517,-6.412 -12.31237,-9.7076 -3.51023,-2.9228 -7.02359,-5.846 -10.43827,-8.8807 -3.92783,-3.4249 -7.75247,-6.9633 -11.55255,-10.5287 -3.32964,-3.2009 -6.66279,-6.4021 -9.88455,-9.7124 -3.59187,-3.611 -7.07148,-7.329 -10.527,-11.07 -3.14273,-3.4762 -6.28183,-6.9594 -9.3044,-10.5413 -3.36932,-3.9074 -6.61394,-7.9177 -9.83646,-11.9463 -2.84042,-3.642 -5.68172,-7.2869 -8.40026,-11.0214 -3.06296,-4.1121 -5.99588,-8.3168 -8.90438,-12.5389 -2.61424,-3.8878 -5.22194,-7.7833 -7.70317,-11.758 -2.74403,-4.2917 -5.35062,-8.667 -7.93345,-13.0569 -2.26438,-3.9491 -4.52127,-7.9058 -6.6573,-11.9264 -2.3999,-4.4355 -4.68868,-8.9281 -6.92254,-13.4493 -0.24798,-0.4913 -0.60754,-1.2214 -0.78632,-1.5646 -1.75525,-3.7807 -3.60425,-7.5186 -5.26922,-11.3405 -2.14865,-4.7478 -4.16351,-9.553 -6.13846,-14.3752 -1.71561,-4.3232 -3.42282,-8.6529 -4.99255,-13.0319 -1.77992,-4.8087 -3.41059,-9.669 -5.01174,-14.5396 -1.38554,-4.3882 -2.76964,-8.7798 -4.01103,-13.2115 -1.44346,-4.9727 -2.74145,-9.9845 -4.00099,-15.0065 -1.057,-4.4273 -2.1146,-8.8573 -3.02852,-13.3169 -1.09496,-5.1109 -2.04332,-10.2501 -2.94964,-15.3973 -0.75149,-4.5563 -1.49734,-9.1163 -2.09792,-13.6954 -0.71737,-5.0932 -1.28326,-10.2043 -1.81218,-15.32 -0.43229,-4.6497 -0.85341,-9.3032 -1.12677,-13.9655 -0.35302,-5.1146 -0.54734,-10.2367 -0.71146,-15.3602 -0.0926,-4.6004 -0.18245,-9.2036 -0.12535,-13.8052 0.0145,-5.1777 0.18083,-10.3518 0.38726,-15.5249 0.2297,-4.5463 0.47016,-9.0947 0.84601,-13.6317 0.38993,-5.2131 0.92784,-10.412 1.50811,-15.6068 0.56279,-4.584 1.1324,-9.1699 1.84751,-13.7331 0.75127,-5.1213 1.65626,-10.2167 2.59496,-15.3065 0.87719,-4.4664 1.75739,-8.935 2.77871,-13.3712 1.12465,-5.0885 2.39209,-10.1424 3.70212,-15.186 1.21217,-4.4576 2.42413,-8.9181 3.78379,-13.3335 1.46779,-4.9468 3.08156,-9.847 4.73146,-14.7356 1.53577,-4.3908 3.07868,-8.7821 4.75975,-13.12 1.80908,-4.8141 3.766,-9.5689 5.75188,-14.3123 1.81425,-4.1944 3.62992,-8.3913 5.58065,-12.5246 2.16499,-4.7017 4.46489,-9.3379 6.80064,-13.9567 2.11844,-4.0855 4.25123,-8.1666 6.50425,-12.18 2.49386,-4.5362 5.11918,-8.9966 7.7794,-13.4368 2.40519,-3.9247 4.82147,-7.8457 7.35621,-11.6886 2.82052,-4.3611 5.76774,-8.6365 8.74606,-12.8908 2.70949,-3.7817 5.42969,-7.559 8.26429,-11.2485 3.06275,-4.0707 6.2478,-8.0452 9.45967,-11.9986 2.9599,-3.5653 5.9294,-7.1263 9.00623,-10.592 3.42499,-3.9283 6.96423,-7.7528 10.53061,-11.5526 3.17789,-3.3055 6.35605,-6.6145 9.6409,-9.8146 3.63563,-3.615 7.37577,-7.1203 11.1417,-10.5987 3.43665,-3.1084 6.88345,-6.2097 10.42215,-9.2022 3.92299,-3.3802 7.94249,-6.6435 11.98749,-9.876 3.69158,-2.8853 7.39219,-5.7634 11.18011,-8.5219 4.084369,-3.0438 8.263614,-5.9543 12.457882,-8.8437 3.887568,-2.6137 7.782637,-5.221 11.756604,-7.7024 4.291238,-2.7447 8.666577,-5.3513 13.056509,-7.9341 4.007452,-2.2973 8.02193,-4.588 12.103596,-6.7519 4.54946,-2.4691 9.171461,-4.7974 13.808516,-7.0966 4.117217,-1.9819 8.237297,-3.9642 12.417629,-5.8106 4.730903,-2.1437 9.521857,-4.1471 14.3280257,-6.115 4.3235624,-1.7149 8.6529936,-3.4227 13.0320515,-4.9923 4.8087128,-1.7799 9.6690078,-3.4106 14.5396148,-5.0117 4.388229,-1.3855 8.779813,-2.7697 13.21145,-4.011 4.972776,-1.4435 9.984518,-2.7415 15.006561,-4.001 4.427328,-1.057 8.857337,-2.1146 13.316872,-3.0286 5.110917,-1.0949 10.250088,-2.0433 15.39736,-2.9496 4.557529,-0.7516 9.118796,-1.4979 13.699248,-2.0983 5.092546,-0.7167 10.202981,-1.2834 15.318031,-1.8118 4.71485,-0.438 9.43342,-0.8657 14.16129,-1.1386 5.4481,-0.3828 10.90622,-0.5546 16.36369,-0.7405 z"
         transform="translate(-2e-6,-3e-5)" />
      <path
         id="circle8899-5"
         style="display:none;fill:#ffffff;stroke:#000000;stroke-width:5;stroke-dasharray:none;stroke-opacity:1"
         inkscape:label="circle4"
         d="m 146.38281,1194.6738 c -3.7359,0.075 -7.47512,0.043 -11.20792,0.2251 -4.55772,0.1398 -9.10676,0.4353 -13.65367,0.7714 -4.06662,0.3525 -8.13621,0.7107 -12.18722,1.2169 -4.59633,0.5238 -9.17074,1.2057 -13.739982,1.9248 -3.990641,0.6816 -7.983889,1.3676 -11.946009,2.2022 -4.504772,0.8961 -8.975902,1.9423 -13.437458,3.0311 -3.985914,1.0236 -7.973147,2.0556 -11.916755,3.2341 -4.415958,1.2628 -8.783615,2.6799 -13.140503,4.1315 -3.823419,1.3303 -7.649419,2.6637 -11.420341,4.1382 -4.327477,1.6354 -8.593907,3.4208 -12.846879,5.2396 -3.701742,1.6414 -7.404384,3.2891 -11.0424061,5.0688 -4.1775965,1.9867 -8.282006,4.1181 -12.3698428,6.2822 -3.5527942,1.9408 -7.1062021,3.8873 -10.5832701,5.9619 -3.999185,2.3258 -7.914103,4.7885 -11.809605,7.283 -3.381425,2.2275 -6.763601,4.4601 -10.056811,6.8171 -3.764389,2.6304 -7.439913,5.3816 -11.088183,8.17 -3.238482,2.5403 -6.475595,5.0878 -9.614751,7.7508 -3.536326,2.9297 -6.966098,5.9818 -10.373075,9.06 -2.991992,2.7777 -5.984008,5.5601 -8.8672,8.4514 -3.281706,3.2122 -6.448124,6.5366 -9.588893,9.8859 -2.728492,2.9916 -5.461033,5.984 -8.075275,9.0768 -3.026705,3.4983 -5.929656,7.0982 -8.803511,10.7224 -2.47514,3.2045 -4.94855,6.4145 -7.29828,9.7128 -2.72711,3.7367 -5.32381,7.5633 -7.88927,11.4121 -2.20107,3.399 -4.40091,6.8027 -6.47266,10.2827 -2.40967,3.9484 -4.6818,7.9763 -6.92005,12.0236 -1.90972,3.5702 -3.82332,7.142 -5.59945,10.7811 -2.07569,4.1344 -4.00567,8.3376 -5.90216,12.5566 -1.62164,3.7464 -3.24646,7.495 -4.72698,11.3001 -1.70329,4.2288 -3.25821,8.5131 -4.77676,12.811 -1.32316,3.8975 -2.63869,7.8012 -3.80967,11.7478 -1.35848,4.387 -2.5608,8.8182 -3.72874,13.2591 -0.98504,3.9615 -1.96864,7.9267 -2.80134,11.9236 -0.98333,4.4524 -1.81311,8.9347 -2.60332,13.4248 -0.65726,4.0283 -1.30946,8.0608 -1.81355,12.1117 -0.62121,4.5841 -1.08281,9.1858 -1.50676,13.7918 -0.3216,4.0703 -0.63677,8.1444 -0.80041,12.2248 -0.23985,4.5863 -0.31738,9.1769 -0.36018,13.7687 0.0178,4.0482 0.0365,8.0998 0.20757,12.145 0.14324,4.591 0.43744,9.1735 0.77705,13.7536 0.35251,4.0672 0.71087,8.1375 1.21703,12.1891 0.52347,4.5957 1.20536,9.1695 1.92461,13.7381 0.68169,3.9906 1.3676,7.9839 2.20227,11.946 0.90229,4.5374 1.95801,9.0404 3.05258,13.5347 1.02012,3.9525 2.04218,7.908 3.21258,11.8195 1.26308,4.4156 2.67932,8.7834 4.12978,13.1404 1.33006,3.8238 2.66575,7.6492 4.13996,11.4204 1.63534,4.3275 3.42077,8.5939 5.23958,12.8469 1.64147,3.7018 3.28678,7.4055 5.06763,11.043 1.98792,4.177 4.11937,8.2814 6.28336,12.3693 1.92451,3.5237 3.85361,7.0487 5.9097,10.498 2.34441,4.0264 4.82113,7.9715 7.33336,11.8947 2.24876,3.4075 4.49934,6.8176 6.87599,10.1377 2.60964,3.7387 5.34443,7.3854 8.11274,11.0076 2.54076,3.2381 5.08621,6.4769 7.750175,9.6153 2.930073,3.5354 5.982291,6.9644 9.060771,10.3705 2.777738,2.9919 5.557731,5.9863 8.449524,8.8691 3.189473,3.2579 6.488474,6.4033 9.815054,9.5202 3.03711,2.7767 6.082516,5.5494 9.225228,8.2071 3.471203,3.007 7.04742,5.8865 10.644765,8.7403 3.204502,2.4752 6.414537,4.9486 9.712877,7.2983 3.736698,2.7271 7.563267,5.3238 11.412102,7.8893 3.399002,2.2011 6.802675,4.4009 10.282693,6.4727 3.9484,2.4096 7.9762293,4.6818 12.0236063,6.92 3.59963435,1.9252 7.201665,3.8529 10.8714812,5.6423 4.1036975,2.0626 8.2780415,3.9755 12.4661385,5.8593 3.715549,1.6084 7.43341,3.2199 11.206533,4.6899 4.260772,1.7134 8.575131,3.2838 12.904654,4.8136 3.897302,1.3237 7.801192,2.6388 11.74777,3.8099 4.387022,1.3585 8.818205,2.5608 13.259118,3.7288 3.961448,0.985 7.926655,1.9686 11.923614,2.8013 4.452348,0.9833 8.93468,1.8131 13.424754,2.6033 4.028294,0.6573 8.060762,1.3095 12.111692,1.8136 4.58412,0.6212 9.18582,1.0828 13.79178,1.5067 4.07028,0.3216 8.14446,0.6368 12.22481,0.8004 4.58563,0.2399 9.17565,0.3172 13.76673,0.3602 4.04892,-0.018 8.10109,-0.036 12.14703,-0.2076 4.62359,-0.1439 9.23853,-0.4424 13.85133,-0.7822 4.03371,-0.3541 8.07101,-0.7058 12.08942,-1.2097 4.59648,-0.5234 9.17086,-1.2062 13.74002,-1.9265 3.99056,-0.6821 7.98387,-1.3677 11.94597,-2.2025 4.53738,-0.9023 9.04038,-1.958 13.53467,-3.0526 3.92038,-1.0116 7.84419,-2.0232 11.72408,-3.1828 4.44706,-1.2743 8.84753,-2.6976 13.2359,-4.1595 3.82378,-1.3302 7.65007,-2.6633 11.42088,-4.1388 4.32699,-1.6366 8.59338,-3.4221 12.84641,-5.2408 3.70155,-1.6412 7.40474,-3.287 11.0424,-5.0668 4.1776,-1.9867 8.28201,-4.1181 12.36985,-6.2822 3.58244,-1.9572 7.1657,-3.9198 10.67076,-6.0138 3.9708,-2.3072 7.85497,-4.7552 11.72218,-7.231 3.38127,-2.2277 6.76357,-4.4601 10.05674,-6.8172 3.76439,-2.6304 7.43991,-5.3816 11.08818,-8.17 3.23849,-2.5403 6.4756,-5.0878 9.61476,-7.7508 3.53632,-2.9297 6.96609,-5.9818 10.37307,-9.0601 2.96776,-2.7547 5.93495,-5.5148 8.79649,-8.3806 3.30505,-3.2366 6.49777,-6.5825 9.66144,-9.9567 2.7284,-2.9911 5.45923,-5.9845 8.07344,-9.0767 3.02673,-3.4988 5.93046,-7.0986 8.80532,-10.7225 2.49567,-3.2307 4.98771,-6.4685 7.3556,-9.7948 2.68845,-3.6823 5.24976,-7.4525 7.77641,-11.247 2.22013,-3.4259 4.43815,-6.8572 6.52701,-10.3654 2.40903,-3.9488 4.68111,-7.9766 6.91943,-12.024 1.90972,-3.5701 3.82332,-7.1419 5.59945,-10.7811 2.07548,-4.1348 4.0063,-8.3378 5.90392,-12.5566 1.60884,-3.7153 3.22092,-7.4329 4.69055,-11.2062 1.72601,-4.2917 3.30501,-8.6384 4.84694,-12.999 1.29723,-3.8357 2.59506,-7.6748 3.7469,-11.5574 1.36588,-4.4198 2.58115,-8.8821 3.75774,-13.3554 0.98555,-3.9613 1.96933,-7.9265 2.80183,-11.9235 0.98304,-4.4524 1.8128,-8.9348 2.60304,-13.4248 0.65715,-4.0282 1.3076,-8.0609 1.81177,-12.1117 0.62104,-4.5841 1.08262,-9.1858 1.50659,-13.7918 0.32204,-4.0696 0.63901,-8.1431 0.80231,-12.2229 0.23792,-4.5529 0.31695,-9.1102 0.35715,-13.6686 0.20098,-41.9548 -8.16757,-83.9222 -24.3741,-122.6171 -16.34468,-39.1412 -40.7224,-74.8972 -71.17642,-104.4215 -29.16247,-28.3271 -63.87547,-50.9097 -101.59348,-66.0835 -37.27687,-15.0411 -77.45867,-22.8269 -117.6555,-22.8099 z m -9.78906,-95.9804 v -1e-4 c 0.69849,-0.01 1.39698,-0.015 2.09547,-0.025 8.32501,-0.1627 16.68312,-0.087 24.95195,0.2707 8.3616,0.3523 16.69203,0.9581 24.98045,1.814 8.24943,0.8514 16.48826,1.9572 24.6222,3.3002 12.28044,2.0222 24.49933,4.6137 36.49992,7.7358 26.03568,6.756 51.48104,16.1268 75.64069,27.823 29.77321,14.3996 57.81849,32.4382 83.24327,53.5256 4.72309,3.9084 9.50347,8.0658 14.01097,12.1534 6.07682,5.527 11.99718,11.2268 17.73407,17.1061 6.51347,6.6667 12.83568,13.6023 18.90656,20.7299 5.33335,6.2706 10.59579,12.8335 15.51097,19.3809 16.13671,21.4401 30.18765,44.5542 41.81129,68.6776 11.06549,22.9933 19.99637,47.0144 26.61515,71.6588 0.88495,3.29 1.74202,6.6556 2.54314,9.9579 1.44077,5.9535 2.79373,12.147 3.95695,18.1216 2.41872,12.447 4.26693,24.9563 5.52945,37.5974 0.82043,8.1129 1.38139,16.3 1.72055,24.4886 0.23563,6.3795 0.38853,12.8383 0.29663,19.272 -0.0158,5.1776 -0.18226,10.3517 -0.38853,15.5248 -0.22965,4.5456 -0.47023,9.0934 -0.84601,13.6298 -0.38993,5.213 -0.92784,10.4119 -1.50811,15.6068 -0.56279,4.5839 -1.13239,9.1699 -1.84751,13.7331 -0.75127,5.1213 -1.65626,10.2167 -2.59496,15.3064 -0.87719,4.4665 -1.75739,8.9351 -2.77871,13.3713 -1.12465,5.0885 -2.39209,10.1424 -3.70211,15.186 -1.21218,4.4576 -2.42413,8.9181 -3.7838,13.3334 -1.46778,4.9469 -3.08156,9.8471 -4.73145,14.7357 -1.53578,4.3908 -3.07869,8.7821 -4.75976,13.12 -1.80908,4.8141 -3.766,9.5689 -5.75188,14.3123 -1.81419,4.1944 -3.63097,8.3907 -5.58119,12.5243 -2.16443,4.702 -4.46428,9.3382 -6.80009,13.957 -2.15012,4.1451 -4.313,8.2868 -6.60368,12.3565 -2.46898,4.4933 -5.07368,8.908 -7.70581,13.3071 -2.41569,3.9363 -4.84193,7.8696 -7.38639,11.7246 -2.80039,4.3338 -5.73119,8.5794 -8.68993,12.8061 -2.70981,3.7815 -5.42838,7.56 -8.26375,11.249 -3.06343,4.0701 -6.24853,8.0445 -9.46033,11.998 -2.9599,3.5653 -5.9294,7.1264 -9.00623,10.592 -3.4255,3.9285 -6.96463,7.7538 -10.53072,11.5545 -3.17739,3.3053 -6.35651,6.6128 -9.64078,9.8127 -3.63564,3.615 -7.37578,7.1204 -11.14171,10.5987 -3.43671,3.1084 -6.88207,6.2113 -10.42146,9.203 -3.92369,3.3794 -7.94327,6.6426 -11.98818,9.8752 -3.6652,2.8649 -7.33868,5.7237 -11.09888,8.4636 -4.11199,3.0624 -8.31682,5.9945 -12.53911,8.902 -3.77685,2.5404 -7.56056,5.0755 -11.4181,7.4925 -4.39244,2.8016 -8.86089,5.4786 -13.3521,8.1182 -4.02017,2.3076 -8.04897,4.6057 -12.14437,6.7781 -4.54965,2.4687 -9.17166,4.7971 -13.8087,7.0963 -4.08762,1.9679 -8.17885,3.9345 -12.32813,5.7701 -4.76105,2.1564 -9.58088,4.1756 -14.41756,6.1554 -4.32407,1.7152 -8.65407,3.4233 -13.03382,4.9927 -4.80887,1.7795 -9.66918,3.4101 -14.53977,5.0113 -4.38761,1.3854 -8.77843,2.7699 -13.20949,4.0111 -4.97278,1.4434 -9.98452,2.7414 -15.00656,4.001 -4.42733,1.057 -8.85734,2.1146 -13.31688,3.0285 -5.11109,1.0946 -10.25023,2.0438 -15.3974,2.9513 -4.5897,0.7574 -9.18365,1.506 -13.7966,2.1101 -5.05912,0.7148 -10.13686,1.2733 -15.21866,1.7985 -4.64978,0.4318 -9.30325,0.8534 -13.96557,1.1266 -5.1152,0.3531 -10.23794,0.5473 -15.36215,0.7115 -4.59979,0.093 -9.20234,0.1847 -13.80325,0.1267 -5.17832,-0.016 -10.35305,-0.1825 -15.52683,-0.3887 -4.54627,-0.2296 -9.09471,-0.4703 -13.63171,-0.8461 -5.21165,-0.39 -10.40928,-0.927 -15.602886,-1.5062 -4.617782,-0.5657 -9.236947,-1.1432 -13.833638,-1.8641 -5.055752,-0.7397 -10.085389,-1.6344 -15.109515,-2.5621 -4.615271,-0.9032 -9.2319,-1.8139 -13.813971,-2.875 -4.94243,-1.0864 -9.84707,-2.3283 -14.74483,-3.5988 -4.522692,-1.2261 -9.046549,-2.4585 -13.525483,-3.8375 -4.915513,-1.4563 -9.783136,-3.0625 -14.640456,-4.7009 -4.3909568,-1.536 -8.7827322,-3.0784 -13.1204516,-4.7605 -4.7991512,-1.8048 -9.5399201,-3.7552 -14.2688404,-5.7355 -4.269873,-1.8467 -8.542027,-3.6952 -12.748481,-5.6835 -4.657882,-2.1425 -9.24697,-4.426 -13.822275,-6.7385 -4.128221,-2.1445 -8.255455,-4.2969 -12.309958,-6.5788 -4.493368,-2.4687 -8.908121,-5.0734 -13.307177,-7.7056 -3.936351,-2.4157 -7.869563,-4.8419 -11.724607,-7.3864 -4.334656,-2.8008 -8.580829,-5.7323 -12.808097,-8.6918 -3.727088,-2.6704 -7.449672,-5.3516 -11.088294,-8.1421 -4.17596,-3.1445 -8.25517,-6.412 -12.31237,-9.7076 -3.51023,-2.9228 -7.02359,-5.846 -10.43827,-8.8807 -3.92783,-3.4249 -7.75247,-6.9633 -11.55255,-10.5287 -3.32964,-3.2009 -6.66279,-6.4021 -9.88455,-9.7124 -3.59187,-3.611 -7.07148,-7.329 -10.527,-11.07 -3.14273,-3.4762 -6.28183,-6.9594 -9.3044,-10.5413 -3.36932,-3.9074 -6.61394,-7.9177 -9.83646,-11.9463 -2.84042,-3.642 -5.68172,-7.2869 -8.40026,-11.0214 -3.06296,-4.1121 -5.99588,-8.3168 -8.90438,-12.5389 -2.61424,-3.8878 -5.22194,-7.7833 -7.70317,-11.758 -2.74403,-4.2917 -5.35062,-8.667 -7.93345,-13.0569 -2.26438,-3.9491 -4.52127,-7.9058 -6.6573,-11.9264 -2.3999,-4.4355 -4.68868,-8.9281 -6.92254,-13.4493 -0.24798,-0.4913 -0.60754,-1.2214 -0.78632,-1.5646 -1.75525,-3.7807 -3.60425,-7.5186 -5.26922,-11.3405 -2.14865,-4.7478 -4.16351,-9.553 -6.13846,-14.3752 -1.71561,-4.3232 -3.42282,-8.6529 -4.99255,-13.0319 -1.77992,-4.8087 -3.41059,-9.669 -5.01174,-14.5396 -1.38554,-4.3882 -2.76964,-8.7798 -4.01103,-13.2115 -1.44346,-4.9727 -2.74145,-9.9845 -4.00099,-15.0065 -1.057,-4.4273 -2.1146,-8.8573 -3.02852,-13.3169 -1.09496,-5.1109 -2.04332,-10.2501 -2.94964,-15.3973 -0.75149,-4.5563 -1.49734,-9.1163 -2.09792,-13.6954 -0.71737,-5.0932 -1.28326,-10.2043 -1.81218,-15.32 -0.43229,-4.6497 -0.85341,-9.3032 -1.12677,-13.9655 -0.35302,-5.1146 -0.54734,-10.2367 -0.71146,-15.3602 -0.0926,-4.6004 -0.18245,-9.2036 -0.12535,-13.8052 0.0145,-5.1777 0.18083,-10.3518 0.38726,-15.5249 0.2297,-4.5463 0.47016,-9.0947 0.84601,-13.6317 0.38993,-5.2131 0.92784,-10.412 1.50811,-15.6068 0.56279,-4.584 1.1324,-9.1699 1.84751,-13.7331 0.75127,-5.1213 1.65626,-10.2167 2.59496,-15.3065 0.87719,-4.4664 1.75739,-8.935 2.77871,-13.3712 1.12465,-5.0885 2.39209,-10.1424 3.70212,-15.186 1.21217,-4.4576 2.42413,-8.9181 3.78379,-13.3335 1.46779,-4.9468 3.08156,-9.847 4.73146,-14.7356 1.53577,-4.3908 3.07868,-8.7821 4.75975,-13.12 1.80908,-4.8141 3.766,-9.5689 5.75188,-14.3123 1.81425,-4.1944 3.62992,-8.3913 5.58065,-12.5246 2.16499,-4.7017 4.46489,-9.3379 6.80064,-13.9567 2.11844,-4.0855 4.25123,-8.1666 6.50425,-12.18 2.49386,-4.5362 5.11918,-8.9966 7.7794,-13.4368 2.40519,-3.9247 4.82147,-7.8457 7.35621,-11.6886 2.82052,-4.3611 5.76774,-8.6365 8.74606,-12.8908 2.70949,-3.7817 5.42969,-7.559 8.26429,-11.2485 3.06275,-4.0707 6.2478,-8.0452 9.45967,-11.9986 2.9599,-3.5653 5.9294,-7.1263 9.00623,-10.592 3.42499,-3.9283 6.96423,-7.7528 10.53061,-11.5526 3.17789,-3.3055 6.35605,-6.6145 9.6409,-9.8146 3.63563,-3.615 7.37577,-7.1203 11.1417,-10.5987 3.43665,-3.1084 6.88345,-6.2097 10.42215,-9.2022 3.92299,-3.3802 7.94249,-6.6435 11.98749,-9.876 3.69158,-2.8853 7.39219,-5.7634 11.18011,-8.5219 4.084369,-3.0438 8.263614,-5.9543 12.457882,-8.8437 3.887568,-2.6137 7.782637,-5.221 11.756604,-7.7024 4.291238,-2.7447 8.666577,-5.3513 13.056509,-7.9341 4.007452,-2.2973 8.02193,-4.588 12.103596,-6.7519 4.54946,-2.4691 9.171461,-4.7974 13.808516,-7.0966 4.117217,-1.9819 8.237297,-3.9642 12.417629,-5.8106 4.730903,-2.1437 9.521857,-4.1471 14.3280257,-6.115 4.3235624,-1.7149 8.6529936,-3.4227 13.0320515,-4.9923 4.8087128,-1.7799 9.6690078,-3.4106 14.5396148,-5.0117 4.388229,-1.3855 8.779813,-2.7697 13.21145,-4.011 4.972776,-1.4435 9.984518,-2.7415 15.006561,-4.001 4.427328,-1.057 8.857337,-2.1146 13.316872,-3.0286 5.110917,-1.0949 10.250088,-2.0433 15.39736,-2.9496 4.557529,-0.7516 9.118796,-1.4979 13.699248,-2.0983 5.092546,-0.7167 10.202981,-1.2834 15.318031,-1.8118 4.71485,-0.438 9.43342,-0.8657 14.16129,-1.1386 5.4481,-0.3828 10.90622,-0.5546 16.36369,-0.7405 z" />
      <circle
         style="display:none;fill:#ffffff;stroke:#000000;stroke-width:1.005;stroke-dasharray:none;stroke-opacity:1"
         id="circle8899-5-6-2"
         cx="146.39438"
         cy="1509.4769"
         inkscape:export-filename="circle8899.png"
         inkscape:export-xdpi="300"
         inkscape:export-ydpi="300"
         r="312.80435"
         inkscape:label="circle3" />
      <circle
         style="display:none;opacity:1;fill:#000000;stroke-width:1.01141"
         id="circle379"
         cx="146.39487"
         cy="1509.4772"
         inkscape:label="circle1"
         r="314.89148" />
      <circle
         style="display:inline;opacity:1;fill:#000000;stroke-width:1.03707"
         id="circle8897"
         cx="146.39487"
         cy="1509.4772"
         inkscape:label="circle2"
         r="322.88156" />
      <path
         id="path8528"
         style="display:inline;fill:#ffffff;stroke:none;stroke-width:0.787298"
         d="m 219.71253,1211.454 v 0 a 157.45962,157.45962 0 0 0 -143.350231,86.7332 157.45962,157.45962 0 0 0 -5.556367,126.803 c 7.026813,1.3258 14.092227,1.1049 18.674783,-0.7416 7.931351,-3.1959 21.503675,-4.807 26.901935,-4.7095 0.77118,0.014 1.37484,0.06 1.77217,0.1446 -11.16117,1.921 -19.47018,9.2803 -32.695832,12.2303 -4.013161,0.8952 -8.023044,1.2535 -11.982374,1.1464 a 157.45962,157.45962 0 0 0 17.662688,29.9817 c 7.724914,-8.7412 14.600388,-18.2451 22.239958,-20.5132 -7.6806,6.3341 -10.74206,13.0288 -15.186073,19.4163 -1.199178,1.7235 -2.526428,3.4091 -3.953407,5.0276 a 157.45962,157.45962 0 0 0 14.36392,14.8535 c 1.89791,-1.0452 3.88456,-2.4375 5.85999,-4.4616 1.27575,-1.3071 3.74708,-4.5055 6.00256,-8.2685 2.29302,-3.8255 4.36818,-8.216 5.4634,-9.5636 3.92687,-4.8311 9.66767,-12.3207 11.21194,-12.5463 -0.80111,2.5708 -7.18968,9.9061 -9.42316,16.4812 -2.49925,7.3579 -2.40122,13.0746 -7.19233,17.2186 -2.46001,2.1278 -5.35553,3.6622 -8.5184,4.662 a 157.45962,157.45962 0 0 0 13.46128,10.6191 c 1.39207,-10.3543 11.29474,-26.0951 19.87078,-27.437 -6.43563,6.3045 -10.00831,14.7898 -12.47181,21.8557 7.29892,-9.0955 14.14225,-19.113 15.30367,-27.8107 1.26633,13.8173 -7.12041,27.4425 -16.21466,37.6222 a 157.45962,157.45962 0 0 0 12.23227,7.9752 c 0.91723,-1.1463 1.90659,-2.2697 2.79474,-3.4268 7.16387,-9.3324 13.2652,-19.087 16.37372,-30.3411 1.50112,7.9096 -4.7799,21.462 -12.91801,33.202 -0.72612,1.0474 -1.51856,1.965 -2.27007,2.9785 a 157.45962,157.45962 0 0 1 11.11485,6.3826 c 1.84017,-8.2298 3.31305,-16.5275 3.91005,-24.1114 2.50951,5.9789 2.64868,16.1866 0.94811,27.2821 a 157.45962,157.45962 0 0 1 16.37584,12.8333 c -1.38383,-16.049 5.08522,-30.0458 12.40995,-41.5448 1.51719,-2.3818 3.06452,-4.6538 4.64125,-6.7915 -2.00325,-1.5851 -4.71412,-3.9349 -5.8765,-5.5213 -2.70854,-3.6967 -4.58266,-6.3591 -10.36704,-9.4562 -0.84426,-0.452 -1.6883,-0.8775 -2.52833,-1.291 -2.66106,3.264 -7.31532,4.6267 -11.96165,3.6107 -2.4801,-0.5425 -4.70904,-1.7426 -7.33065,-2.9889 -2.82011,-1.3405 -6.1062,-2.4826 -7.94013,-4.0175 2.48392,-2.0824 13.54113,1.5214 14.37016,1.7784 1.02965,0.3193 3.93638,0.6885 6.89493,0.2251 0.64184,-0.1004 1.28484,-0.2748 1.91685,-0.4853 -2.13302,-0.9241 -4.15826,-1.7068 -5.9757,-2.3548 -1.93873,-0.1201 -2.86908,-0.4585 -2.86908,-0.4585 -0.0645,-0.062 0.0962,-0.2122 0.35111,-0.3966 -2.59136,-0.8348 -4.49276,-1.3037 -5.16189,-1.3675 3.30152,-1.0557 6.3762,-1.167 9.2806,-0.6753 2.53172,-1.0362 5.56335,-2.04 8.12182,-2.6977 8.73437,-2.2452 11.81602,-4.1008 15.01052,-4.9532 2.1035,-0.5614 9.87368,-1.0864 20.16193,-0.1942 4.62042,0.4007 9.79892,1.2922 15.11384,2.2391 3.57459,0.6368 8.85345,0.014 14.29782,-1.0885 -4.79026,-1.9488 -9.35304,-3.974 -13.82075,-6.7111 5.12795,-0.2033 13.7775,2.1494 21.85786,4.7942 3.3489,-0.9064 6.48935,-1.8577 8.9646,-2.6811 4.30558,-1.4323 11.62206,-0.776 14.37629,0.1343 2.99863,0.991 3.40802,1.9776 5.26098,2.396 0.71714,-6.6593 0.30427,-15.4103 -1.00173,-23.0455 -1.11383,-6.5117 -4.18427,-13.8646 -1.32407,-19.3069 -0.37639,-0.2007 -0.78874,-0.2972 -1.23937,-0.2354 -14.40421,1.974 -26.7378,7.0203 -38.67565,11.249 -21.84453,7.738 -43.3149,14.3044 -73.07354,-1.6999 20.00795,4.9789 31.78717,3.6669 42.60643,0.5928 -25.25382,1.4641 -37.0158,-5.4077 -46.55995,-10.9476 -18.25366,-10.5951 -25.78641,-19.0929 -34.64567,7.1284 -4.02966,-10.3607 -0.69007,-22.3435 9.44166,-23.3719 0.54211,-0.055 1.09216,-0.079 1.65034,-0.076 8.37278,0.048 18.70567,6.5164 35.61452,15.7479 11.89026,6.4916 24.77093,4.3313 43.48643,8.6445 4.08529,-1.399 8.29484,-2.866 13.0667,-4.1726 22.8745,-6.2628 42.93364,-12.4811 51.67224,-7.88 0.32552,0.1714 0.5952,0.6376 0.7973,1.2951 1.41799,-0.517 3.07351,-0.7301 4.54427,-0.4462 0.27011,3.3795 0.87757,4.0751 -3.12311,9.0927 -1.25956,1.5798 -1.33645,4.0058 -0.26851,6.5457 5.40851,4.06 10.08329,5.7379 13.63683,5.8641 -0.85917,-4.0342 -0.55861,-8.6671 0.9625,-10.1522 1.61607,2.233 3.81507,4.5146 3.24304,8.6444 -0.0381,0.2741 0.0137,0.5106 0.11971,0.7105 6.7436,-3.1043 8.60714,-12.295 5.3292,-19.7509 -0.0634,0.6116 -0.15609,1.147 -0.27475,1.5492 -0.46385,1.5707 -1.2381,5.07 -3.00128,6.8865 -1.53126,1.5776 -4.87529,1.4891 -6.04592,1.4171 -5.29292,-0.3261 -6.78748,-8.7546 0.78292,-8.9399 -0.81264,1.2549 -0.63126,1.5789 -0.0328,1.2972 0.74601,-0.3513 2.14041,-1.6453 3.06949,-3.247 0.74982,-1.2927 -0.26239,-3.382 -1.8921,-4.6186 -1.31456,-0.9972 -5.29335,0.7219 -11.67462,6.804 0,-1.2845 -0.51588,-3.1172 0.43381,-4.9409 1.14144,-2.1913 3.90074,-4.3371 5.57287,-5.071 3.75934,-1.6499 8.30763,-1.7082 10.68939,-0.2437 4.61597,-0.05 9.78178,4.8026 9.39619,10.9248 -0.25984,4.1247 -0.76251,8.0305 -1.53676,11.5032 4.10803,5.4822 1.62951,9.3807 -6.14501,12.6495 -1.62686,1.3798 -3.52985,2.0953 -5.74027,1.9623 -3.52044,-0.212 -8.47949,-2.2281 -13.66783,-7.7542 1.60328,3.862 1.26264,8.5724 1.13816,11.0673 -0.24472,4.9046 -1.48441,9.4106 -6.44875,14.459 0.17228,0.018 0.32045,0.045 0.51642,0.056 -0.78451,1.2374 -3.9367,1.5942 -8.29125,1.9726 -4.8755,3.7004 -12.15095,4.7302 -19.11261,3.4619 -0.42578,0.082 -0.86118,0.1615 -1.33233,0.2251 -1.7581,0.2374 -4.57759,0.4769 -6.61806,0.7229 -2.28583,0.2756 -12.12356,3.0211 -23.59915,-0.037 -2.72747,-0.7269 -16.29366,-1.5778 -22.44438,-1.0597 -3.14596,0.265 -7.26075,0.3627 -9.85687,1.3386 -4.8,1.8042 -9.40741,3.4338 -12.79618,4.1207 0.79942,0.3728 1.5872,0.779 2.36505,1.2022 0.50192,-0.1703 0.95086,-0.2815 1.32809,-0.2809 -0.0709,0.3032 -0.15387,0.5966 -0.24779,0.8841 0.97117,0.5563 1.92891,1.1366 2.87321,1.7268 5.08152,3.1753 9.27975,7.1287 11.98851,10.5364 1.54617,1.9451 2.66719,3.8541 3.37925,5.5833 5.78576,-7.4958 12.03515,-13.0099 19.0921,-14.711 8.48457,-2.0452 21.75337,-0.2091 22.84922,7.9958 0.0772,0.5759 0.0592,1.1986 -0.0169,1.8487 0.85177,1.2208 1.47669,2.6325 1.96645,4.0402 0.38083,1.0949 0.59002,2.3237 0.65273,3.6354 0.21152,-0.1679 0.44196,-0.2626 0.69609,-0.2623 -0.0116,1.3449 -0.036,7.2009 0.7642,14.5044 0.16245,1.483 0.35249,2.9816 0.54952,4.4968 0.91744,1.2646 1.58043,3.0819 2.06966,5.2919 1.57303,1.8862 3.04401,4.4196 4.22203,7.591 1.78941,4.817 2.87913,11.1355 3.31517,17.8196 0.16667,2.5484 4.5651,8.5434 5.15978,12.7383 0.11051,0.7775 0.17555,1.5065 0.21902,2.2061 0.97783,-0.057 2.006,0.045 3.11274,0.3821 -0.0106,0.7783 -1.1152,3.2356 -3.3049,5.544 -0.0201,0.2078 -0.0402,0.4332 -0.0603,0.6341 -0.0994,-0.082 -0.20242,-0.1769 -0.30363,-0.2644 -2.02937,2.0114 -4.89232,3.8319 -8.60926,4.2056 -2.11207,0.2122 -4.71168,0.3133 -7.51667,0.2995 -0.0539,0.9627 -0.074,1.9683 -0.0264,2.9909 0.1507,3.1704 1.02817,6.3384 1.07607,10.0634 0.037,2.8706 -0.88497,5.0656 -0.95636,7.9111 -0.1286,5.1242 0.48522,10.4215 0.10946,11.8212 -0.43085,1.6044 -5.58904,5.2868 -9.69157,7.3597 0.75838,2.9862 1.00057,5.9106 0.913,8.6527 -0.16339,5.1198 -1.86978,9.8458 -4.23853,14.1925 a 157.45962,157.45962 0 0 0 -2.96204,-13.7918 c -0.0106,0.051 -0.0243,0.09 -0.0349,0.1405 -0.71809,3.5689 -0.78567,7.7046 -2.28456,10.4269 -6.32893,11.4949 -9.55325,11.6482 -12.68259,13.7071 -1.87338,1.2326 -6.1741,5.7316 -4.52355,-3.9659 0.52244,-3.0689 1.56341,-8.6266 2.90419,-13.0544 1.5467,-5.1075 4.1846,-11.8893 5.61834,-14.8865 1.17951,-2.4659 2.87311,-3.5999 3.82132,-5.3725 0.89111,-1.6659 1.16608,-3.5106 1.22076,-5.1392 a 157.45962,157.45962 0 0 0 -0.54127,-1.2992 c -0.99179,0.4106 -1.9363,0.9438 -2.80912,1.6401 -0.38252,-1.1073 -0.96291,-2.8078 -1.57398,-4.9326 -0.83252,-2.895 -0.62936,-6.8714 -2.06141,-10.5736 a 157.45962,157.45962 0 0 0 -11.38337,-18.3857 c -4.79047,6.8825 -3.45762,0.83 -4.38934,-3.2533 -0.18676,-0.8185 -0.29866,-1.9131 -0.36348,-3.09 a 157.45962,157.45962 0 0 0 -5.02145,-6.0376 c 0.11443,1.5652 0.21289,3.1256 0.38834,4.7032 0.28269,-0.9458 0.58103,-1.8811 0.88613,-2.8154 -0.24525,1.5925 -0.37131,3.115 -0.33673,4.5071 0.10259,4.1198 2.08955,13.1929 5.87449,15.5991 -0.15176,1.3847 -0.0508,2.8482 0.3491,4.3997 1.41704,0.011 3.65793,-2.6282 7.15721,-5.4799 0.23595,2.9003 0.73375,5.9614 1.42931,8.9439 1.86037,7.975 5.06946,15.3394 8.0682,17.2743 -4.10316,3.875 -6.85326,10.3251 -8.83452,14.2421 -2.28794,4.5236 -4.13361,8.4854 -5.13492,12.0629 -3.65243,13.0503 -1.56224,19.9906 2.92481,22.0004 4.64802,2.0817 11.86975,-1.1256 17.94559,-8.314 2.35965,-2.7916 4.53359,-5.9213 6.34965,-9.2537 a 157.45962,157.45962 0 0 1 -14.457,96.9287 157.45962,157.45962 0 0 1 -204.408398,73.2883 314.91925,314.91925 0 0 0 415.804698,-143.2759 314.91925,314.91925 0 0 0 -139.97521,-422.7946 157.45962,157.45962 0 0 0 -68.04596,-16.7456 z m -25.98481,334.7292 c -1.26486,-17.3057 1.42634,-33.5768 14.13675,-42.3545 -4.30664,8.4646 -7.39168,16.8333 -7.86769,24.8674 -0.12321,2.0788 -0.45846,4.119 -0.91712,6.143 2.48793,-5.5376 5.48001,-9.8053 7.44423,-9.8486 -0.019,2.1508 -3.41976,10.4277 -6.4425,16.1176 -1.11119,2.0915 -1.54628,7.2295 -1.33222,11.1128 a 157.45962,157.45962 0 0 1 4.75282,6.3433 c 0.44238,-0.6356 0.86002,-1.2213 1.41492,-2.0924 1.18311,-1.857 3.75385,-2.6336 6.15337,-3.2492 0.56284,-0.4397 1.20785,-0.7499 1.94371,-0.9046 -0.19312,0.1601 -0.37227,0.3432 -0.53915,0.5432 0.52286,-0.1352 1.02944,-0.269 1.48102,-0.4173 -0.99592,0.8519 -1.93483,2.125 -2.82361,3.5776 2.03212,-1.0395 4.26307,-1.9712 6.64493,-2.7824 8.40948,-2.8637 15.98263,0.7672 25.25773,2.0285 0.42779,-0.011 0.88698,0.04 1.38394,0.1466 4.2e-4,0.011 8.4e-4,0.013 -0.0106,0.017 4.6587,0.3313 7.93209,-2.1546 11.31103,-3.8027 -0.29654,-0.5476 -0.57564,-1.1178 -0.8138,-1.729 -1.53189,-3.9307 -2.06871,-9.0205 -3.36487,-13.6182 -0.86192,-3.0573 -1.77778,-6.0676 -2.65831,-8.9481 0.20559,3.0437 0.80936,8.3429 0.78694,10.0904 -0.96757,-1.6714 -1.39769,-5.7113 -2.12339,-9.4438 -0.10259,-0.5287 -0.32045,-1.8454 -0.57627,-3.4743 -9.5e-4,8.7152 -1.15127,16.8591 -4.26952,20.3231 -9.5e-4,-0.982 -0.12479,-11.6648 0.67124,-17.3756 0.1084,-0.7771 0.22886,-1.4873 0.34911,-2.1812 -0.32997,1.0116 -0.73375,1.9404 -1.23112,2.739 -0.79212,1.2715 -1.92816,2.046 -3.11899,6.461 -0.5604,-8.1419 1.99299,-15.3244 4.65997,-24.9788 -0.0571,-0.2184 -0.1047,-0.4269 -0.1673,-0.6528 -1.28157,-4.5968 -2.00272,-9.6644 -2.14613,-13.893 -0.24948,0.6795 -0.52614,1.3562 -0.8304,2.0285 -3.11613,6.8846 -9.34406,12.4291 -18.86071,18.3194 2.51691,-6.3217 5.99029,-9.3651 9.17738,-12.9923 4.33118,-4.9295 8.3602,-12.0652 7.30792,-16.758 -0.0772,-0.3453 -0.15441,-0.6718 -0.23341,-0.9936 -2.75677,4.8188 -7.70376,10.5742 -14.25657,16.7538 0.59689,-2.0497 1.92636,-5.9843 4.22002,-9.6792 2.94629,-4.7462 6.94094,-9.426 7.27693,-12.6888 0.30574,-2.9688 -9.43162,-3.5111 -10.45789,-3.6147 -6.05882,-0.612 -15.95323,8.3102 -24.64846,17.3384 -7.44223,7.7271 -14.79731,21.0111 -19.30891,40.83 a 157.45962,157.45962 0 0 0 -0.58452,-0.5164 c 0.0666,0.767 0.0561,1.5142 0.15906,2.2908 0.13135,-0.6131 0.29062,-1.1636 0.42758,-1.764 a 157.45962,157.45962 0 0 1 6.36816,6.0748 c -0.0169,-0.4673 1e-4,-0.9198 -0.0497,-1.4026 -0.88889,-8.3577 -0.18878,-16.8772 1.229,-20.9965 2.43273,-7.0677 5.81812,-9.9093 6.75238,-9.9084 0.981,1.4568 -1.31573,5.6112 -2.65641,9.8589 -2.41877,7.6636 -2.59813,17.232 -2.0428,21.9673 0.18973,1.6187 0.33007,2.843 0.49991,4.3336 a 157.45962,157.45962 0 0 0 -3.72635,-3.8523 c 0.26059,7.2074 -3.23933,12.7973 -1.81764,22.9381 0.54771,3.9071 4.32081,6.887 5.41793,10.6707 1.11404,3.8428 -0.84447,8.5053 -2.37541,9.9023 -0.76769,0.7007 -3.56454,3.3865 -4.67848,3.6643 -3.1891,0.7956 -6.3782,-1.2162 -10.30305,-2.7493 -3.23321,-1.2629 -7.68061,-1.7988 -11.05077,-1.9932 -16.86253,-0.9729 -32.74829,-1.1029 -41.59634,2.5469 -12.35675,5.0969 -16.6765,6.5794 -16.67534,7.8139 5.15883,0.7196 9.98991,0.1047 14.79149,-1.0368 3.56348,-0.8468 7.11047,-1.9834 10.76162,-3.0756 3.71451,-1.1114 7.36957,0.1705 10.55709,-0.1798 5.7315,-0.6299 15.46463,-3.942 22.44238,-0.8427 3.75881,1.6695 6.86838,2.7108 9.55736,3.3669 -0.91321,3.1164 -1.56584,7.599 -1.5285,12.7528 0.0666,9.2211 4.27268,13.8969 7.91115,23.4565 1.06349,2.7942 1.38066,9.9808 1.66895,16.2003 -0.0878,-0.4212 -0.1782,-0.8386 -0.29126,-1.2476 -3.09159,-11.1907 -5.30096,-18.7026 -9.56974,-20.5462 -0.9571,3.4937 3.83444,9.0485 4.83754,18.7533 0.87123,8.4283 -1.02626,14.032 -0.14256,28.4263 0.7477,12.1806 6.84586,22.35 13.61421,31.6052 6.06558,8.2941 8.53385,14.5892 10.54058,19.7779 -2.99768,1.4258 -6.49178,4.8093 -10.98265,9.295 -4.77947,4.774 -15.34492,5.5046 -19.08998,3.8605 -7.47713,-3.2823 -17.17589,-2.7259 -24.03286,-0.3511 2.35986,-6.5204 2.36917,-13.6359 0.61762,-19.72 -2.3239,-8.0728 -7.49267,-15.2115 -11.88116,-25.5696 -5.05847,-11.9391 -9.53315,-26.5355 -8.91701,-46.4175 -2.09505,1.5692 -4.19485,12.1014 -3.90391,24.3055 0.27581,11.5643 3.63137,21.8364 7.32039,33.1628 1.80813,5.5515 3.56359,11.0807 5.28785,16.037 0.0719,0.2064 0.14468,0.4003 0.2168,0.6031 0.44799,7.1858 1.64516,14.2128 4.64136,21.2712 -0.91025,0.8695 -1.53083,1.7999 -1.76815,2.7618 0.59509,0.1154 1.21747,0.2045 1.85487,0.2808 -0.73216,1.2375 -1.35305,2.5563 -1.89199,3.8048 -1.03378,2.3947 -2.20567,4.4064 -2.41676,6.5395 -0.50288,5.0799 -0.79265,6.8698 -3.3379,8.4111 -2.57064,1.5564 -1.96211,5.1071 -1.93546,6.8721 0.0518,3.4075 1.52808,5.6017 3.76971,7.0209 4.77524,3.023 13.02905,2.5222 18.41451,2.7141 6.4296,0.2292 15.48388,-1.4354 18.73253,-6.6346 3.12871,-5.007 1.67371,-20.8009 -4.37898,-27.8666 6.47698,0.8138 12.22371,1.7203 18.1295,-0.097 7.63058,-2.3479 13.9007,-7.5129 17.99931,-14.4237 0.29306,0.6022 0.59626,1.1967 0.92749,1.7721 0.41531,-1.801 0.74612,-3.4852 0.89027,-5.2671 0.36401,-0.8051 0.71153,-1.6215 1.02034,-2.4621 -0.3233,-0.1839 -0.65094,-0.3227 -0.98111,-0.4276 -0.0909,-2.2712 -0.4924,-4.8136 -1.4108,-8.0082 -0.91818,-3.1939 -2.70463,-6.6814 -4.94086,-11.6086 -1.88818,-4.1605 -5.72293,-8.0828 -8.95212,-12.4904 -3.64132,-4.9702 -5.87374,-10.8217 -7.0064,-16.5059 -1.25597,-6.3032 -0.53978,-12.8806 -0.40283,-18.9351 1.03632,9.1436 3.67072,16.1056 4.75293,17.516 0.33557,-4.1131 0.036,-4.3902 0.29126,-8.6754 0.40822,-6.8572 1.81278,-16.1512 1.25787,-25.3713 -0.2885,-4.7937 -5.97759,-14.4523 -7.91728,-25.3301 -0.73406,-4.1167 -0.55385,-6.2876 -0.83866,-9.3962 -0.23573,-2.5742 -1.52078,-5.5903 -2.12127,-7.4774 -0.17958,-0.564 -0.30289,-1.1253 -0.40695,-1.6792 2.42924,0.3294 4.50567,0.3503 6.41352,0.2622 2.63684,-0.1221 5.41201,0.1435 7.51256,-0.8592 1.48028,-0.7067 3.03745,-1.7096 4.02574,-3.4309 1.37728,-2.3986 4.36946,-3.2703 4.86028,-7.3369 0.55776,-4.6206 -3.89567,-10.0544 -5.2465,-17.4995 -0.99486,-5.4834 -1.67942,-11.6942 -2.50972,-18.9825 a 157.45962,157.45962 0 0 1 2.5056,2.7368 z m 21.15764,30.7667 a 157.45962,157.45962 0 0 1 6.44451,13.8661 c 0.20432,-0.085 0.39564,-0.2046 0.60525,-0.2748 0.0465,0.4411 -0.0465,1.044 -0.0645,1.574 a 157.45962,157.45962 0 0 1 5.9612,18.144 c 0.61107,-2.9139 1.8187,-5.3557 1.09268,-8.1942 -1.46579,-5.7303 -3.87694,-11.2015 -0.91099,-12.6887 2.47345,2.9752 4.16281,6.044 5.26522,9.0864 0.32076,-0.4741 0.62894,-0.9849 0.90052,-1.5368 1.09628,-2.2274 1.02489,-5.5975 1.59672,-7.5476 0.93225,-3.1788 2.35902,-8.654 2.35056,-12.8044 -0.0148,-7.3187 0.22134,-12.3155 0.82004,-15.6405 -2.88083,-0.1421 -5.82975,-0.3982 -8.60513,-0.7911 -1.27639,-0.1807 -2.49164,-0.2536 -3.63741,-0.2458 -3.43753,0.023 -6.24971,0.7562 -8.20653,1.3612 -2.81779,0.8712 -5.23096,2.1474 -7.31828,3.5301 0.0751,0.4674 0.15652,0.9372 0.2499,1.4107 0.66934,3.3937 1.78582,6.9068 3.19746,9.9767 0.11665,0.2535 0.15895,0.5179 0.25826,0.7747 z m -50.74274,-56.8093 a 157.45962,157.45962 0 0 0 -4.85816,-3.1707 c -0.90179,4.0328 -1.86302,8.0505 -2.90832,11.9555 -4.67943,17.4816 -10.28836,32.7535 -12.26538,37.4756 7.80106,-6.8631 14.00392,-20.5039 17.62959,-34.5508 1.01167,-3.9192 1.8132,-7.8659 2.40227,-11.7096 z m -15.97301,-9.5533 a 157.45962,157.45962 0 0 0 -1.81976,-1.0018 157.45962,157.45962 0 0 1 -2.16062,-1.4108 c -5.80542,7.2547 -12.0343,14.3592 -17.92496,21.7835 5.38906,-0.506 14.18074,-8.9545 21.90534,-19.3709 z m -16.21265,-10.3877 a 157.45962,157.45962 0 0 1 -6.48798,-4.2303 c -0.16689,1.2421 -0.27455,2.4494 -0.17757,3.5011 -3.15092,3.6915 -6.03217,7.0521 -8.14244,9.8403 -1.94424,-3.2339 -5.54167,-8.1037 -8.07222,-13.2939 -1.5118,-3.1007 -1.45533,-6.8266 -2.423,-9.516 1.87253,-0.178 3.64089,-0.609 5.35395,-1.1506 a 157.45962,157.45962 0 0 1 -3.404,-3.5218 c -1.44221,0.7942 -2.83852,1.4073 -4.10845,1.8321 -0.4022,-0.2376 -0.86012,-0.4312 -1.39631,-0.5617 -7.502086,-1.827 -12.264853,-7.0139 -15.489701,-10.0636 2.506441,-1.7618 4.67446,-3.8417 6.630541,-6.0603 a 157.45962,157.45962 0 0 1 -3.100478,-3.9307 c -2.89404,3.2746 -5.465416,6.0946 -7.609533,8.5886 -9.942322,1.1599 -16.551392,0.9107 -21.915599,0.4111 -11.089467,-1.0325 -15.252274,-3.9201 -23.088974,-2.3032 2.388205,-1.1015 4.612909,-2.2879 6.857707,-3.2967 5.916576,-2.6586 11.525187,-4.0693 11.53407,-5.0585 -0.990837,0.7736 -3.930882,-0.8077 -8.109341,-0.074 -4.417576,0.7753 -10.25991,3.0516 -16.600994,3.7594 -4.52714,0.5054 -14.430437,1.867 -21.192751,-1.0348 -4.4286801,-1.9006 -6.0875844,-2.679 -10.44964266,-2.8691 -14.31082634,-0.6239 -20.35980434,5.9139 -20.35821734,7.5826 2.312477,0.012 15.4894823,-2.7369 22.1821076,-0.4193 7.0472235,2.4405 15.9411754,5.8482 25.4622674,4.6559 1.08972,-0.1366 2.122225,-0.3321 3.11687,-0.5619 9.292868,1.0187 19.628817,3.7712 29.207123,5.0276 7.223626,0.9476 14.012483,1.0418 19.598145,-1.1051 -0.212995,0.301 -0.433921,0.6063 -0.623861,0.8965 2.723454,-0.8599 5.168979,-2.0496 7.380252,-3.4743 -0.01586,2.4883 1.252375,5.7017 3.294648,9.2207 1.987703,3.4251 8.48097,6.5458 10.226591,8.7291 1.39409,1.7434 3.8411,10.5746 6.79986,13.546 3.27276,3.2864 6.21777,5.5913 8.32837,6.8515 -0.90698,1.4317 -1.48367,2.6422 -1.5926,3.563 -0.2847,0.6438 -0.56823,1.2746 -0.85927,1.9623 -1.76953,4.1809 -3.01588,10.7275 -2.44352,15.1118 1.69581,12.9905 2.64942,16.7475 -1.72479,23.9708 -2.81007,4.6404 -7.37623,13.4684 -7.41325,21.6822 -0.0434,9.6142 1.06688,10.4009 2.53024,14.1513 5.66667,-4.0527 4.45649,-17.2836 6.97954,-20.54 2.92999,-3.7817 5.28055,-7.5177 6.87632,-12.2798 0.62333,-1.86 1.02372,-3.7525 1.25798,-5.6535 6.48375,-0.82 12.41608,-5.7496 13.4488,-10.0118 -3.87695,2.3021 -8.68561,4.2615 -13.1989,5.9013 0.0106,-4.9646 -0.96694,-9.8735 -2.23285,-14.3165 -1.89559,-6.6519 1.13985,-12.3002 1.36321,-16.9313 0.10893,-2.2568 -0.0138,-4.0696 -0.18793,-5.4883 0.31368,-0.011 0.48616,-0.158 0.50192,-0.4378 3.85749,-2.9113 8.75711,-7.3206 13.47366,-12.6 z m -58.480346,-67.1371 a 157.45962,157.45962 0 0 1 -2.670682,-8.0702 c -2.506546,-0.4729 -5.005053,-1.119 -7.388605,-1.9912 -6.170603,-2.2579 -12.897172,-2.0518 -15.270676,-2.0202 -8.361149,0.1116 -13.408825,0.9459 -13.407661,2.0532 7.554645,0.7669 11.94557,2.2565 18.575688,5.2776 6.373657,2.9041 13.187793,4.5618 20.161936,4.7508 z M 219.96666,1329.5487 a 39.364906,39.364906 0 0 1 14.80598,4.0877 39.364906,39.364906 0 0 1 17.49739,52.8475 39.364906,39.364906 0 0 1 -52.84963,17.4995 39.364906,39.364906 0 0 1 -17.49739,-52.8496 39.364906,39.364906 0 0 1 38.04365,-21.5851 z m -115.95885,16.2312 c 3.6831,0.027 7.44085,0.9278 11.01364,2.9186 0.6668,0.3717 11.45031,8.1356 11.01766,17.3529 -0.12331,2.6253 0.42324,7.0108 -0.21278,11.5299 -0.69218,4.9178 -2.5884,10.0049 -3.23458,13.4923 -1.35728,7.3242 1.55188,14.627 1.46241,21.4302 -3.55513,-5.6088 -10.39845,-11.8158 -9.70617,-18.3504 0.90761,-8.569 4.7175,-14.3942 6.33717,-21.7794 2.16601,-9.8767 -6.09721,-20.5407 -16.60511,-20.2095 -12.033353,0.3794 -17.395021,8.9487 -21.752421,13.6638 -1.291082,1.397 -0.364862,13.3629 0.221032,14.9319 0.809041,2.1667 -2.904616,3.5517 -2.354785,5.7981 0.452957,1.8503 4.412922,1.7057 4.430689,3.6106 0.05605,5.9478 1.664404,12.6503 3.129244,12.9263 17.558301,3.3094 17.968851,8.7053 17.177261,15.7872 -3.00022,-0.8929 -5.937937,-9.7175 -14.142881,-9.985 -4.21706,-0.1376 -9.702359,-5.9215 -10.057279,-7.4588 -0.354921,-1.5373 0.253182,-8.0059 -0.268517,-8.5204 -1.912827,-1.887 -4.566588,-2.5819 -5.20113,-5.1929 -0.501499,-2.0635 1.255124,-3.3593 1.542995,-5.4634 0.57553,-4.2067 -2.239299,-8.2007 -1.206264,-12.319 2.05232,-8.1815 6.728366,-15.2932 15.124097,-20.3975 3.937016,-2.3936 8.550347,-3.8008 13.285719,-3.7655 z M -45.844884,1362.86 c -1.405722,-0.01 -2.714677,0.5254 -3.906029,1.4914 -1.167029,0.4965 -1.886599,1.1601 -1.885859,1.923 0.02009,0 0.03913,0.011 0.06028,0.011 -6.318769,8.3604 -8.028331,29.9292 -0.646598,40.6854 -0.08884,0.04 -0.178623,0.079 -0.266402,0.124 0.128389,0.016 0.267671,0.047 0.410972,0.087 0.139917,0.1979 0.281419,0.3944 0.427576,0.5845 0.03173,-0.043 0.16075,-0.1888 0.272747,-0.3181 3.372696,1.5181 9.332421,7.6205 11.961646,13.6637 2.070933,4.7601 4.832883,8.8208 8.400701,11.7407 2.359016,1.9305 4.74722,3.5223 6.820481,4.6765 0.04759,0.759 0.08249,1.51 0.0846,2.2391 0.01058,4.0369 5.150574,9.9426 2.034659,15.564 -2.30656,4.161 -1.100401,12.4085 1.363208,12.8892 1.805479,0.01 0.04971,-5.9709 2.501465,-10.3423 4.036957,-7.1991 2.892031,-12.3086 0.791063,-17.1463 -3.590022,-8.267 -2.233054,-12.0854 -1.334336,-19.6415 0.828712,-6.9676 -0.782068,-10.1226 -0.776676,-10.7307 -1.818067,0.6905 -4.841977,7.3306 -5.370445,16.1713 -0.06874,1.1594 -0.02432,2.4241 0.06768,3.7325 -3.041994,-4.1733 -6.284398,-8.6743 -8.59688,-11.8418 -5.424066,-7.4297 -12.198753,-12.7688 -17.307451,-11.9039 0.478127,-0.8537 0.893647,-2.1163 0.535025,-3.7965 -1.110237,-5.2019 -2.458428,-20.1425 0.229281,-27.5216 1.066136,-2.927 2.01594,-5.712 2.920691,-7.9545 2.735193,0.9 4.814482,2.1609 6.805992,2.9579 2.007585,0.8034 3.944419,1.0563 6.101756,1.7268 -0.292524,0.7942 -0.47707,1.7704 -0.491665,2.9228 -0.04971,3.862 -0.39331,8.7628 -1.877609,13.2092 -1.628235,4.8778 -0.383793,10.4462 1.047311,14.8887 1.567636,4.8662 5.804473,7.5441 11.724116,6.428 -0.190786,-1.0911 0.333769,-3.6489 -1.602854,-5.6369 -4.524178,-4.644 -6.711339,-11.398 -5.04207,-22.6035 0.840662,-5.6433 -0.85991,-10.2416 -1.051331,-11.7014 -0.194487,2e-4 -0.390983,0.031 -0.584624,0.089 -1.849479,-4.8001 -8.156826,-6.3501 -13.126665,-6.0934 0.122043,-0.1695 0.243347,-0.3287 0.365602,-0.4627 -0.359045,-0.071 -0.711956,-0.1047 -1.05958,-0.1074 z m 35.409977,41.7079 c -7.409864,-0.073 -10.207449,3.3588 -10.205969,4.8748 2.850887,-1.8193 8.490696,-3.5866 12.6123641,0.5515 2.8265673,2.8378 6.7855806,2.2907 11.1725975,4.8272 3.9907404,2.3074 7.9333614,5.0976 11.8460534,7.1056 1.98802,1.0201 3.982809,2.0807 5.919959,3.0198 1.065079,3.4629 3.620591,7.6365 6.946438,11.7697 6.257853,7.777 16.618126,16.3388 23.863538,18.9123 -3.532918,-4.082 -11.826065,-12.1697 -18.722268,-20.0608 -2.553291,-2.9217 -4.901731,-5.8174 -6.793724,-8.4461 0.284804,0.087 0.573838,0.1797 0.851027,0.2499 9.638164,2.4424 16.380914,1.0923 16.39445,-0.4255 -1.439035,-10e-4 -11.748545,-3.5553 -17.891969,-7.2295 -4.995432,-2.9876 -16.8627424,-10.4794 -25.06769283,-13.1267 -4.42064267,-1.4262 -8.02526427,-1.9936 -10.92480417,-2.0222 z m 131.250257,188.4499 c -2.17447,0.1255 -2.89541,8.7298 -1.32196,20.129 0.93648,6.7845 3.47919,13.9436 4.88502,22.3391 0.79106,4.7238 2.56196,9.445 2.72451,14.4012 0.18444,5.6238 -0.41806,11.0301 1.23725,15.5866 3.74338,10.3045 19.58334,23.8531 21.22987,25.8093 2.11631,-2.4454 -1.57768,-7.3077 -9.44991,-15.7147 -1.38923,-1.4838 -3.00382,-4.6073 -3.98662,-6.7483 -1.86143,-4.0546 -2.502,-7.8405 -2.39391,-13.1514 0.15049,-7.3937 -1.1e-4,-14.1181 -2.06977,-20.381 -3.84448,-11.6487 -9.34332,-38.9337 -10.85448,-42.2698 z m -43.728086,17.8073 a 39.364907,39.364907 0 0 0 -36.641098,21.6616 39.364907,39.364907 0 0 0 17.49739,52.8496 39.364907,39.364907 0 0 0 52.847514,-17.4974 39.364907,39.364907 0 0 0 -17.495277,-52.8496 39.364907,39.364907 0 0 0 -16.208529,-4.1642 z m 63.954116,118.0822 c 1.46452,1.9584 2.85977,3.2095 4.10834,3.778 -1.6993,0.6088 -3.21226,1.3325 -4.46369,2.1357 0.16456,-1.8826 0.28058,-3.8699 0.35535,-5.9137 z m 14.43202,10.4559 c 3.23479,0 6.2238,0.2986 9.07818,0.6404 -0.11898,4.7879 0.24282,8.944 0.53291,12.476 0.84278,10.2645 1.02944,15.3114 -13.28773,15.6508 -3.37259,0.08 -21.17837,2.2936 -13.10192,-5.4448 4.70629,-4.5094 4.06255,-14.0996 6.0934,-19.437 0.49632,-1.3046 0.71968,-2.4927 0.71058,-3.6664 3.45815,-0.028 6.97595,-0.2229 9.97458,-0.219 z"
         inkscape:label="figure and yinyang" />
      <g
         id="g11406"
         transform="matrix(1.2186279,0,0,1.2456594,-32.001045,-295.74889)"
         inkscape:label="bottom-text">
        <ellipse
           style="display:none;fill:none;stroke:#1ad7ff;stroke-width:1.00366;stroke-dasharray:none;stroke-opacity:1"
           id="ellipse11400"
           cx="-1463.2251"
           cy="-148.39673"
           rx="302.58575"
           ry="313.47061"
           transform="matrix(0,-1,-1,0,0,0)" />
        <text
           xml:space="preserve"
           style="font-style:normal;font-weight:normal;font-size:40px;line-height:1.25;font-family:sans-serif;letter-spacing:8px;display:inline;fill:#000000;fill-opacity:1;stroke:none"
           id="text3905-9"><textPath
             xlink:href="#ellipse11400"
             startOffset="50%"
             id="textPath11411"
             style="font-style:normal;font-variant:normal;font-weight:normal;font-stretch:normal;font-size:69.2602px;font-family:BoldBrush;-inkscape-font-specification:'BoldBrush, Normal';font-variant-ligatures:normal;font-variant-caps:normal;font-variant-numeric:normal;font-variant-east-asian:normal;text-align:center;text-anchor:middle">SKAH SZEGED</textPath></text>
      </g>
      <g
         id="g11398"
         style="display:none"
         inkscape:label="upper-text">
        <text
           xml:space="preserve"
           style="font-style:normal;font-weight:normal;font-size:40px;line-height:1.25;font-family:sans-serif;letter-spacing:8px;fill:#ff0c0c;fill-opacity:1;stroke:none"
           id="text3905"><textPath
             xlink:href="#path4051"
             startOffset="50%"
             id="textPath11290"
             style="font-style:normal;font-variant:normal;font-weight:normal;font-stretch:normal;font-size:96px;font-family:BoldBrush;-inkscape-font-specification:'BoldBrush, Normal';font-variant-ligatures:normal;font-variant-caps:normal;font-variant-numeric:normal;font-variant-east-asian:normal;text-align:center;text-anchor:middle;fill:#ff0c0c;fill-opacity:1">BALANCE KUNG FU SE</textPath></text>
        <ellipse
           style="display:none;fill:none;stroke:#1ad7ff;stroke-width:1.071;stroke-dasharray:none;stroke-opacity:1"
           id="path4051"
           cx="1509.4771"
           cy="-146.39479"
           rx="328.64377"
           ry="328.64368"
           transform="rotate(90)" />
      </g>
      <g
         id="g1831"
         style="display:inline"
         inkscape:label="upper-text">
        <text
           xml:space="preserve"
           style="font-style:normal;font-weight:normal;font-size:40px;line-height:1.25;font-family:sans-serif;letter-spacing:8px;display:inline;fill:#000000;fill-opacity:1;stroke:none"
           id="text1827"><textPath
             xlink:href="#path4051"
             startOffset="50%"
             id="textPath1825"
             style="font-style:normal;font-variant:normal;font-weight:normal;font-stretch:normal;font-size:96px;font-family:BoldBrush;-inkscape-font-specification:'BoldBrush, Normal';font-variant-ligatures:normal;font-variant-caps:normal;font-variant-numeric:normal;font-variant-east-asian:normal;text-align:center;text-anchor:middle;fill:#000000;fill-opacity:1">BALANCE KUNG FU SE</textPath></text>
        <ellipse
           style="display:none;fill:none;stroke:#1ad7ff;stroke-width:1.071;stroke-dasharray:none;stroke-opacity:1"
           id="ellipse1829"
           cx="1509.4771"
           cy="-146.39479"
           rx="328.64377"
           ry="328.64368"
           transform="rotate(90)" />
      </g>
    </g>
  </g>
  <metadata
     id="metadata1693">
    <rdf:RDF>
      <cc:Work
         rdf:about="">
        <cc:license
           rdf:resource="http://creativecommons.org/licenses/by-sa/4.0/" />
      </cc:Work>
      <cc:License
         rdf:about="http://creativecommons.org/licenses/by-sa/4.0/">
        <cc:permits
           rdf:resource="http://creativecommons.org/ns#Reproduction" />
        <cc:permits
           rdf:resource="http://creativecommons.org/ns#Distribution" />
        <cc:requires
           rdf:resource="http://creativecommons.org/ns#Notice" />
        <cc:requires
           rdf:resource="http://creativecommons.org/ns#Attribution" />
        <cc:permits
           rdf:resource="http://creativecommons.org/ns#DerivativeWorks" />
        <cc:requires
           rdf:resource="http://creativecommons.org/ns#ShareAlike" />
      </cc:License>
    </rdf:RDF>
  </metadata>
</svg>
