<?xml version='1.0' encoding='utf-8'?>
<svg xmlns="http://www.w3.org/2000/svg" version="1.1" width="600px" height="976px" viewBox="0 0 600 976"> <g id="layer1"> <g style="fill:rgb(0,0,0); fill-opacity:1.0; stroke-linejoin: miter"> <path d="M336.56644,501.95453C336.4574,502.01007,336.46356,502.05325,336.5952,502.1787C336.71454,502.29187,336.731,502.3371,336.6919,502.44202C336.67545,502.48108,336.67957,502.50372,336.71454,502.5469C336.7865,502.63947,336.95724,502.80402,336.98193,502.80402C336.99426,502.80402,337.00043,502.8575,336.9963,502.95416C336.9881,503.0879,336.97986,503.11255,336.9161,503.19482C336.79474,503.34705,336.5253,503.60828,336.30725,503.7852C336.19208,503.87775,336.00284,504.04434,335.8856,504.15543C335.76834,504.26648,335.61612,504.40842,335.54825,504.4722C335.40015,504.6141,335.15744,504.826,335.03815,504.91855C334.81393,505.09747,334.64114,505.27234,334.5054,505.46362C334.2853,505.7701,334.1619,505.89352,333.9994,505.97375C333.92328,506.01077,333.82867,506.05603,333.78958,506.07452C333.7505,506.0951,333.69086,506.11774,333.65793,506.1239C333.623,506.13214,333.57153,506.1568,333.5407,506.17944C333.50983,506.2,333.47693,506.2185,333.4646,506.2185C333.4543,506.2185,333.38437,506.25143,333.30826,506.2905C333.23215,506.3296,333.14987,506.3625,333.12314,506.3625C333.06555,506.3625,332.901,506.46533,332.77963,506.5785C332.6521,506.69778,332.61713,506.706,332.504,506.63812C332.43817,506.6011,332.39294,506.58875,332.35385,506.59494C332.323,506.60315,332.25513,506.6155,332.20163,506.6258C332.14816,506.63608,332.09058,506.65665,332.07205,506.67102C332.05148,506.6875,332.01035,506.69366,331.94864,506.68542C331.88898,506.67722,331.82727,506.68134,331.77792,506.7019C331.62775,506.75742,331.45087,506.7821,331.167,506.78418C331.00864,506.78622,330.7947,506.80063,330.68982,506.81708C330.50262,506.8459,330.50262,506.8459,330.4121,506.94873C330.3648,507.00427,330.31134,507.0639,330.29694,507.0783C330.25784,507.11945,330.2167,507.2079,330.20026,507.284C330.18585,507.35803,330.17557,507.3601,329.95547,507.38068C329.865,507.38892,329.80533,507.3848,329.78888,507.3704C329.74567,507.33542,329.55438,507.3087,329.25818,507.29428C328.94553,507.28195,328.96405,507.29633,328.8859,506.98987C328.8571,506.8767,328.818,506.73685,328.7995,506.67926C328.7604,506.562,328.7748,506.38922,328.8221,506.37073C328.88177,506.34808,328.90027,506.22058,328.8859,505.93878C328.8756,505.75983,328.8797,505.6364,328.8941,505.58087C328.90646,505.5356,328.91675,505.39368,328.9188,505.26617C328.9188,505.1407,328.9332,504.97818,328.94965,504.9062C328.97845,504.77045,328.97638,504.74988,328.90234,504.5524C328.88794,504.51334,328.8715,504.4434,328.86737,504.3961C328.8612,504.34875,328.84268,504.28088,328.82623,504.24182C328.8077,504.20273,328.78098,504.13074,328.76453,504.0793C328.74808,504.0279,328.7213,503.95795,328.70898,503.92505C328.69458,503.89008,328.6761,503.84482,328.66785,503.8222C328.59174,503.61652,328.4786,503.45813,328.3079,503.31415C328.28528,503.29562,328.24207,503.2545,328.21326,503.2216C328.18448,503.19073,328.12482,503.1352,328.08163,503.1023C328.03638,503.06732,327.9685,503.01178,327.93146,502.9768C327.88828,502.93567,327.8307,502.90686,327.7813,502.89865C327.73605,502.8904,327.6826,502.87808,327.66406,502.8678C327.64557,502.8575,327.5962,502.83487,327.55713,502.81638C327.39874,502.7444,327.3,502.67856,327.26297,502.6189C327.22595,502.55927,327.12515,502.52838,327.12515,502.57776C327.12515,502.61478,327.0182,502.6436,326.8845,502.6436C326.8125,502.6436,326.7508,502.6518,326.74258,502.6621C326.7364,502.67236,326.6932,502.70117,326.64795,502.72382C326.58212,502.7567,326.51425,502.767,326.31677,502.77524C326.02264,502.78552,326.00824,502.7896,325.9774,502.85544C325.963,502.88425,325.9198,502.92743,325.88074,502.95007C325.84164,502.97473,325.80872,503.0097,325.80872,503.02823C325.80872,503.0714,325.747,503.13312,325.70383,503.13312C325.63596,503.13312,325.46112,503.24216,325.43643,503.29974C325.42407,503.33264,325.40558,503.35938,325.3994,503.35938C325.36237,503.35938,325.06412,503.61035,324.9695,503.71936C324.76587,503.95795,324.76794,503.9559,324.68155,503.9559C324.60544,503.9559,324.59927,503.96002,324.56223,504.04846C324.53137,504.12662,324.51697,504.14102,324.46762,504.14102L324.40796,504.14102L324.45117,504.18628C324.51697,504.25827,324.52316,504.3138,324.47174,504.38373C324.42236,504.4516,324.4306,504.4907,324.49435,504.4907C324.5252,504.4907,324.53345,504.5051,324.53345,504.56064C324.53345,504.59973,324.5252,504.6388,324.51288,504.64496C324.48407,504.66144,324.48615,504.73135,324.51492,504.74988C324.52933,504.75812,324.54785,504.7478,324.5581,504.7293C324.58075,504.69022,324.61572,504.6861,324.61572,504.72107C324.61572,504.73547,324.64246,504.77454,324.67743,504.80746C324.77615,504.9103,324.9037,505.07486,324.9037,505.10162C324.9037,505.11395,324.92838,505.1551,324.95923,505.19006C325.01065,505.25177,325.0127,505.26822,325.0127,505.45334C325.01065,505.56235,325.02094,505.6714,325.03122,505.69196C325.04355,505.71457,325.10526,505.7804,325.17108,505.8421C325.35004,506.00665,325.35004,506.00665,325.30066,506.43036C325.29037,506.525,325.2945,506.5332,325.37265,506.60522C325.4673,506.69366,325.54132,506.8459,325.59274,507.05774C325.6133,507.14413,325.65652,507.2511,325.69354,507.30457C325.81696,507.4897,325.891,507.61722,325.891,507.65015C325.891,507.69745,325.9959,507.83527,326.05966,507.87228C326.08847,507.8908,326.15634,507.91138,326.20984,507.9196C326.37643,507.9422,326.35794,508.043,326.16663,508.14172C326.07202,508.1911,326.0432,508.2158,326.0391,508.25693C326.035,508.29187,326.0103,508.32068,325.95682,508.3474C325.91568,508.37006,325.85605,508.40295,325.8252,508.42352C325.7964,508.4441,325.75937,508.46057,325.74292,508.46057C325.72852,508.46057,325.6668,508.50992,325.60715,508.57162C325.4673,508.71973,325.385,508.7773,325.27393,508.80817C325.1505,508.84314,325.0559,508.8884,324.94482,508.96246C324.87488,509.00977,324.8173,509.03033,324.70828,509.04266C324.63013,509.0509,324.54785,509.05707,324.52933,509.05707C324.4162,509.04883,324.28043,509.055,324.1632,509.07352C324.08914,509.0838,323.90402,509.1085,323.7518,509.12906C323.5996,509.14758,323.45355,509.17636,323.42886,509.1928C323.40417,509.2093,323.3651,509.22162,323.34454,509.22162C323.2561,509.22162,323.13885,509.29565,322.9887,509.44583C322.80975,509.62476,322.57114,509.77698,322.46417,509.77698C322.42715,509.77698,322.3716,509.7667,322.34076,509.7564C322.3099,509.74408,322.2153,509.7338,322.1289,509.73175C321.98697,509.72763,321.95612,509.73584,321.81213,509.8037C321.7237,509.84485,321.6455,509.87982,321.6373,509.87982C321.62494,509.87982,321.4645,509.9518,321.4028,509.98474C321.38223,509.99503,321.34314,510.00323,321.31436,510.00323C321.28763,510.00323,321.23413,510.0156,321.1971,510.03204C321.10455,510.07318,320.72403,510.18835,320.687,510.18835C320.67053,510.18835,320.60678,510.211,320.54712,510.2398C320.46484,510.27682,320.4011,510.2912,320.30646,510.2912C320.13986,510.2912,319.8848,510.23773,319.7408,510.17398C319.6421,510.12872,319.54745,510.0917,319.2163,509.96826C319.07233,509.91275,318.97565,509.89218,318.5375,509.8202C318.21045,509.7667,317.9986,509.742,317.66333,509.71527C317.4823,509.70087,317.32394,509.67413,317.21082,509.63916C317.11414,509.61038,317.00305,509.57745,316.96396,509.56512C316.9249,509.55484,316.86523,509.53223,316.83026,509.51782C316.7439,509.48285,316.20496,509.3224,315.86353,509.2319C315.7504,509.2031,315.6393,509.1702,315.6167,509.1599C315.59406,509.14963,315.5303,509.127,315.47272,509.1085C315.41718,509.08997,315.36163,509.06735,315.3493,509.05707C315.339,509.04883,315.26495,509.00565,315.18472,508.9645C314.8515,508.78555,314.7322,508.66418,314.6705,508.45026C314.60468,508.2137,314.4422,508.00186,314.17273,507.80234C314.07813,507.73242,313.99585,507.66452,313.9876,507.65015C313.97733,507.63574,313.9259,507.5946,313.87244,507.55756C313.77368,507.4897,313.6914,507.38892,313.50012,507.09476C313.44458,507.00836,313.36642,506.91376,313.3253,506.8829C313.28415,506.85205,313.23682,506.8109,313.22037,506.79034C313.14633,506.70807,313.02908,506.65045,312.93036,506.65045C312.84808,506.65045,312.8234,506.66077,312.7699,506.71423C312.67325,506.8109,312.68146,506.89728,312.80695,507.08655C312.9077,507.2367,312.98795,507.31897,313.22656,507.52258C313.3582,507.63367,313.41168,507.71594,313.4014,507.79822C313.39728,507.84143,313.37875,507.85788,313.3006,507.8805C313.2142,507.90723,313.19568,507.90723,313.06198,507.86404C312.88098,507.8085,312.81104,507.74063,312.5889,507.4095C312.42023,507.1585,312.30505,507.01865,312.2351,506.98163C312.1734,506.94873,312.0171,506.95282,311.98624,506.98987C311.96567,507.01453,311.96976,507.03305,312.0109,507.08655C312.0397,507.12357,312.08908,507.20584,312.11993,507.26755C312.1508,507.32925,312.19397,507.40536,312.21454,507.43622C312.26184,507.502,312.26596,507.57608,312.2207,507.57608C312.18985,507.57608,311.98416,507.43826,311.70853,507.2367C311.50284,507.08447,311.3136,507.00015,311.1799,507.00015C311.0606,507.00015,311.0236,507.02072,310.97833,507.103C310.9598,507.14,310.93924,507.14206,310.76648,507.13177C310.51346,507.11533,310.47028,507.13177,310.45383,507.26135C310.4456,507.31485,310.43118,507.38068,310.4168,507.4074C310.39005,507.465,310.4127,507.51233,310.48672,507.54935C310.5361,507.57404,310.7562,507.67688,311.02975,507.80234C311.11,507.83936,311.24368,507.91754,311.328,507.97513C311.48227,508.08002,311.5913,508.13144,311.66946,508.13144C311.75378,508.13144,311.92657,508.18903,312.00473,508.24252C312.04794,508.27338,312.17136,508.3865,312.27625,508.49347C312.43668,508.6539,312.49838,508.70123,312.64444,508.7732C312.74112,508.81845,312.8234,508.8637,312.82956,508.86987C312.846,508.89044,313.13605,509.07764,313.15045,509.07764C313.17102,509.07764,314.04932,509.6659,314.11514,509.72556C314.18506,509.78726,314.3558,509.87982,314.399,509.87982C314.41544,509.87982,314.46686,509.90656,314.51212,509.94153C314.55945,509.97446,314.66434,510.02176,314.7466,510.04437C314.8289,510.06702,315.04074,510.1534,315.21558,510.23773C315.39044,510.32208,315.62286,510.4311,315.72983,510.48047C315.94168,510.57712,316.1042,510.65735,316.4086,510.81985C316.83026,511.04407,317.00717,511.1325,317.14087,511.18597C317.21902,511.21683,317.29926,511.25385,317.32394,511.26825C317.34656,511.2847,317.4021,511.30527,317.44736,511.31763C317.4926,511.32996,317.6366,511.3855,317.76617,511.44308C317.89575,511.50067,318.04385,511.56238,318.09528,511.5809C318.1467,511.59735,318.19812,511.62,318.2084,511.6282C318.22076,511.63644,318.33594,511.67554,318.4655,511.71667C318.78845,511.8154,318.76584,511.8092,319.03323,511.86475C319.1649,511.89355,319.30063,511.92853,319.3356,511.94702C319.4302,511.99435,319.58655,512.00464,319.78195,511.9779C319.87863,511.96555,320.01645,511.9491,320.08844,511.94293C320.23035,511.93057,320.79395,511.96967,320.8639,511.99847C320.89474,512.0108,320.92148,512.054,320.94412,512.126C320.9647,512.18567,320.9873,512.2432,320.9976,512.25555C321.00787,512.26587,321.0161,512.2905,321.0161,512.3091C321.0161,512.3646,321.1128,512.5641,321.19095,512.6711C321.2979,512.81714,321.34726,512.86237,321.4419,512.9056C321.5221,512.94257,321.5283,512.9529,321.54062,513.0434C321.5612,513.1997,321.56735,513.22235,321.6147,513.282C321.65582,513.3334,321.66815,513.3375,321.76483,513.3293C321.93143,513.3128,322.00958,513.2943,322.0857,513.2532C322.1248,513.2326,322.18033,513.20996,322.2091,513.2018C322.2379,513.19354,322.28522,513.1688,322.31607,513.14624C322.34692,513.1257,322.43127,513.0886,322.5053,513.066C322.5773,513.0434,322.68634,512.994,322.74805,512.95905C322.9064,512.86444,323.0689,512.81506,323.17792,512.8274C323.37744,512.85205,323.66132,512.8994,323.70038,512.91583C323.77237,512.94464,323.867,513.05365,323.89374,513.1401C323.90814,513.1853,323.98013,513.34576,324.05212,513.4979C324.17966,513.7612,324.23312,513.9011,324.41003,514.4277C324.4882,514.6622,324.57867,514.85144,324.67126,514.9728C324.698,515.00775,324.71857,515.0571,324.71857,515.0797C324.71857,515.1188,324.7062,515.125,324.62393,515.125C324.4162,515.125,324.25165,515.19696,324.192,515.3163C324.17346,515.35126,324.0583,515.48083,323.93488,515.60425C323.73743,515.8038,323.70654,515.8284,323.65512,515.8182C323.62427,515.812,323.51114,515.8202,323.40417,515.8367C323.29517,515.8511,323.1162,515.8655,323.00516,515.8655C322.8447,515.8655,322.7871,515.8737,322.72336,515.9066C322.6781,515.92926,322.61432,515.94775,322.58142,515.94775C322.54645,515.94775,322.47034,515.96625,322.4107,515.99097C322.35104,516.0156,322.25644,516.04236,322.19882,516.0506C322.1433,516.06085,322.05896,516.07733,322.0137,516.08765C321.96844,516.0979,321.85327,516.12256,321.7566,516.1411C321.28967,516.23364,321.26294,516.2398,321.13953,516.29333C321.11072,516.30566,321.03668,516.32007,320.97498,516.32416C320.91327,516.3303,320.8022,516.35504,320.72815,516.3797C320.6109,516.42084,320.5821,516.4249,320.48953,516.40436C320.4011,516.38586,320.35583,516.39,320.23035,516.42084C319.93005,516.49695,319.4467,516.6656,319.3973,516.7129C319.3356,516.7705,319.2883,516.87744,319.2883,516.9598C319.2883,516.9927,319.27594,517.04407,319.2595,517.07495C319.22864,517.1346,319.04352,517.3176,318.95917,517.37524C318.9304,517.39374,318.8111,517.49866,318.69385,517.60974C318.5766,517.71875,318.47168,517.81335,318.46143,517.8175C318.4511,517.8216,318.3997,517.88947,318.35034,517.96765C318.29892,518.04785,318.23926,518.1322,318.21457,518.15686C318.19196,518.1795,318.14874,518.23096,318.11792,518.27C318.0891,518.3091,318.00476,518.40576,317.93073,518.48395C317.8567,518.5621,317.78262,518.6485,317.76617,518.67316C317.73328,518.72253,317.52963,518.95703,317.4268,519.06396C317.31982,519.17505,317.22314,519.2902,317.16556,519.3746C317.13675,519.4178,317.08945,519.4774,317.0627,519.5062C317.03802,519.53503,316.9434,519.6461,316.857,519.75305C316.77063,519.86,316.67188,519.9752,316.63693,520.0081C316.60196,520.0431,316.57315,520.07806,316.57315,520.0883C316.57315,520.09863,316.55466,520.1233,316.532,520.14386C316.5094,520.1644,316.4333,520.2632,316.3613,520.366C316.20496,520.59436,316.00955,520.8453,315.83884,521.0427L315.7113,521.19086L315.7216,521.3307C315.72775,521.4068,315.74216,521.4973,315.75244,521.5302C315.79974,521.68036,315.77713,521.7359,315.50766,522.1576C315.41718,522.2954,315.2917,522.44556,315.11273,522.6307C314.9667,522.7788,314.7857,522.9845,314.7096,523.08734C314.5841,523.2539,314.55325,523.2827,314.42368,523.3465C314.34552,523.38556,314.24884,523.4411,314.20975,523.472C314.17273,523.5028,314.10278,523.55835,314.05548,523.5954C314.00818,523.6304,313.93414,523.69,313.8889,523.725C313.77985,523.80725,313.52686,524.0356,313.2718,524.28033C313.03525,524.5066,312.96533,524.55804,312.65472,524.7205C312.5313,524.7863,312.40582,524.86035,312.37704,524.8851C312.34824,524.9097,312.2495,524.9838,312.15695,525.04755C312.06232,525.1134,311.98624,525.17303,311.98624,525.1813C311.98624,525.1895,311.91217,525.2718,311.82166,525.3643C311.67975,525.5062,311.6571,525.5412,311.6571,525.6009C311.6571,525.7284,311.71677,525.74896,312.159,525.7716C312.45932,525.7881,312.68762,525.7531,312.7987,525.677C312.86865,525.6276,312.90567,525.6173,313.0661,525.60913C313.28003,525.59674,313.47543,525.54944,313.5495,525.4939C313.57828,525.4733,313.63586,525.40546,313.67908,525.34375C313.7387,525.2574,313.79013,525.2121,313.88477,525.1607L314.0123,525.09076L314.43396,525.07635C315.38013,525.04553,315.44595,525.0393,315.52002,524.9838L315.58585,524.93445L315.58585,524.7308C315.58585,524.5806,315.59613,524.5066,315.62286,524.4387C315.64548,524.38934,315.6784,524.2659,315.69897,524.16516C315.71747,524.0623,315.74832,523.9533,315.76477,523.9224C315.78946,523.87103,315.9787,523.6448,316.10623,523.50696C316.12885,523.4843,316.16998,523.43286,316.1988,523.3938C316.28107,523.2848,316.4621,523.0976,316.63898,522.93713L316.7994,522.79315L316.85495,522.83844C316.88788,522.8631,316.94547,522.9125,316.98453,522.9495C317.1059,523.05853,317.30542,523.2087,317.3301,523.2087C317.34244,523.2087,317.44116,523.14905,317.5502,523.07495C317.65717,523.0009,317.75177,522.9413,317.75793,522.9413C317.7744,522.9413,317.8649,522.86926,317.96158,522.7788C318.00684,522.7377,318.0994,522.66156,318.16727,522.6101C318.34827,522.47644,318.89337,522.0321,318.99005,521.9396C319.05585,521.87787,319.43433,521.62897,319.5557,521.56726C319.76755,521.46234,319.81897,521.42944,319.9136,521.33484C319.96295,521.28546,320.0555,521.1991,320.1193,521.14355C320.18512,521.088,320.26944,520.98517,320.31674,520.907C320.362,520.83295,320.4525,520.7136,320.5204,520.6437C320.63763,520.52026,320.64792,520.5141,320.74252,520.5141C320.79602,520.5141,320.8783,520.50385,320.92355,520.4935C320.9688,520.4812,321.12924,520.4668,321.28143,520.46063C321.43365,520.45447,321.5756,520.44214,321.59412,520.42975C321.64758,520.403,321.7237,520.40717,321.78952,520.44214C321.83887,520.4689,321.8944,520.47296,322.10626,520.46063C322.3716,520.4462,322.4148,520.4339,322.56702,520.32074C322.602,520.294,322.67194,520.2652,322.72336,520.25494C322.86118,520.2302,323.21906,520.23645,323.47412,520.2652C323.5996,520.2796,323.74564,520.2961,323.79913,520.30225C323.87933,520.3105,323.9616,520.292,324.26193,520.1953C324.46146,520.13153,324.6548,520.06366,324.6877,520.0472C324.93658,519.9197,325.02505,519.89703,325.28833,519.89703C325.566,519.89703,325.59894,519.9053,325.69766,520.0122C325.7532,520.0719,325.77582,520.08215,325.8581,520.08215C325.90952,520.08215,325.96918,520.0739,325.98975,520.0657C326.00824,520.0554,326.07614,520.02454,326.13785,519.9958C326.19955,519.967,326.3024,519.9197,326.36615,519.8888C326.42993,519.86,326.50604,519.8353,326.53687,519.8353C326.56775,519.8353,326.6315,519.81683,326.67676,519.7942C326.72406,519.77155,326.77548,519.75305,326.79193,519.75305C326.82898,519.75305,326.95032,519.6543,327.14368,519.4692C327.31647,519.3046,327.26297,519.3211,327.65997,519.3088C327.92325,519.30054,328.18448,519.2758,328.20505,519.2573C328.21533,519.2471,328.2585,519.23883,328.29965,519.23883C328.34286,519.23883,328.384,519.2306,328.39017,519.21826C328.42102,519.1689,328.59174,519.1997,328.68842,519.2717C328.70486,519.28613,328.7892,519.31696,328.87354,519.3417C328.9579,519.36633,329.0422,519.39307,329.05865,519.4013C329.10187,519.42395,329.26846,519.4589,329.4433,519.48566C329.75183,519.5289,330.3463,519.5021,330.68362,519.426C330.9243,519.3725,331.11148,519.3232,331.26575,519.26965C331.35623,519.23883,331.40765,519.23883,331.7491,519.2594C331.96097,519.2717,332.24896,519.28406,332.39087,519.2882C332.66855,519.2944,333.01205,519.3273,333.19308,519.36633C333.3165,519.39307,333.37408,519.42395,333.54276,519.56793C333.66205,519.6708,333.732,519.6996,333.913,519.7263L334.02612,519.7428L334.04053,519.89703C334.04877,519.9814,334.06522,520.11505,334.07755,520.1953C334.0899,520.27344,334.10428,520.44415,334.11047,520.5737C334.1228,520.7918,334.12076,520.8103,334.07755,520.8679C334.0364,520.92346,334.0323,520.9502,334.04053,521.0777C334.0508,521.22784,334.0899,521.3389,334.17422,521.4521C334.2174,521.5117,334.22153,521.53436,334.22153,521.7956C334.22153,521.9498,334.21124,522.1,334.1989,522.13293C334.18655,522.16376,334.17422,522.3427,334.1701,522.5299C334.16394,522.71704,334.1516,522.93304,334.13925,523.01324C334.094,523.328,334.09195,523.39996,334.12897,523.5378C334.14954,523.6118,334.17218,523.7208,334.1804,523.77844C334.22153,524.0499,334.34082,524.13635,334.73578,524.17957C334.86536,524.194,335.1163,524.2063,335.29114,524.2083C335.59763,524.2104,335.82593,524.2392,335.9802,524.2988C336.1715,524.37085,336.29492,524.4449,336.3628,524.52716C336.45535,524.6403,336.53763,524.665,336.84412,524.6794C337.0745,524.68964,337.16498,524.702,337.42004,524.7596C337.63397,524.8069,338.07004,524.8049,338.16876,524.7534C338.2099,524.73285,338.27777,524.69995,338.32098,524.68146C338.39502,524.6506,338.44232,524.5806,338.42383,524.5333C338.4197,524.521,338.3724,524.47986,338.32098,524.4408C338.2675,524.40375,338.16052,524.31116,338.08032,524.23303C337.90753,524.07056,337.79236,524.0026,337.5887,523.9471C337.50848,523.9245,337.42212,523.8998,337.39948,523.8895C337.24725,523.82367,337.20203,523.8031,337.1074,523.7661C336.85852,523.66736,336.45123,523.4247,336.0851,523.1552C335.7025,522.8734,335.72308,522.896,335.72308,522.74384L335.72308,522.6122L335.79507,522.6122C335.83417,522.6122,335.86707,522.61835,335.86707,522.6286C335.86707,522.63684,335.90408,522.6554,335.9473,522.6677C335.99255,522.6821,336.06247,522.71704,336.10568,522.74585C336.14682,522.77466,336.19617,522.7973,336.21674,522.7973C336.23526,522.7973,336.25787,522.80347,336.2661,522.8117C336.29492,522.8425,336.4389,522.8796,336.56848,522.8919C336.70422,522.9063,336.70834,522.90424,336.9408,522.79114C337.20407,522.66156,337.30692,522.58954,337.38098,522.47845C337.418,522.4209,337.42416,521.91284,337.38715,521.81C337.37067,521.7606,337.3604,521.5302,337.3563,521.09C337.35217,520.7342,337.3398,520.29816,337.32748,520.1233C337.25345,519.00226,337.23697,518.29266,337.2843,518.2453C337.29663,518.233,337.30692,518.20215,337.30692,518.1754C337.30692,518.1507,337.31924,518.08075,337.33365,518.0211C337.35422,517.94293,337.3604,517.7928,337.3563,517.48425C337.35217,517.10376,337.346,517.0523,337.31104,517.0009C337.2555,516.92065,337.21848,516.71704,337.2452,516.6265C337.30487,516.41876,337.2308,516.2666,337.01483,516.1432C336.97165,516.11847,336.89346,516.05676,336.84,516.0074C336.71658,515.8943,336.57053,515.78937,336.42242,515.7112C336.36072,515.68036,336.27023,515.6269,336.22293,515.59393C336.1756,515.5631,336.13242,515.5364,336.12418,515.5364C336.11597,515.5364,336.0954,515.522,336.07687,515.5034C336.03162,515.4562,335.8712,515.4747,335.78687,515.5364C335.72308,515.5796,335.7128,515.5816,335.56677,515.55896C335.48242,515.54663,335.25824,515.5364,335.06897,515.5364C334.8098,515.5343,334.71313,515.52814,334.67407,515.5055C334.64526,515.4891,334.5918,515.4767,334.5527,515.4747C334.5136,515.4747,334.45398,515.46643,334.419,515.4562C334.38403,515.44586,334.29147,515.4253,334.21124,515.41296C334.1331,515.40063,334.04877,515.3821,334.02612,515.37384C333.7546,515.2669,333.28564,515.17847,332.99768,515.18054C332.7714,515.18256,332.45465,515.2196,332.31888,515.25867C332.19135,515.2957,331.8828,515.30804,331.7594,515.2813C331.70593,515.269,331.68536,515.24634,331.6401,515.15173C331.59277,515.0489,331.5866,515.018,331.59485,514.8802C331.601,514.7938,331.61954,514.66425,331.6401,514.5902C331.6586,514.5161,331.67917,514.4277,331.68536,514.3948C331.68945,514.3598,331.7018,514.3146,331.71002,514.29193C331.7347,514.2302,331.8684,513.8106,331.89722,513.7057C331.90955,513.6543,331.9322,513.5946,331.94247,513.572C331.97537,513.5144,332.0186,513.3149,332.02063,513.2326C332.02063,513.19147,332.02887,513.1503,332.03708,513.1401C332.0659,513.1071,332.15845,512.78217,332.18518,512.62585C332.1975,512.5456,332.21603,512.4489,332.22632,512.40985C332.2901,512.1383,332.31476,512.0458,332.33533,512.02313C332.3477,512.0067,332.36826,511.91,332.38266,511.80716C332.39703,511.70227,332.4135,511.5953,332.41968,511.5665C332.4279,511.51715,332.4711,511.2621,332.51636,510.97C332.54926,510.75195,332.57806,510.6121,332.59863,510.57507C332.60892,510.5545,332.61713,510.49072,332.61713,510.4311C332.6192,510.22128,332.63565,510.1822,332.8866,509.83868C332.97504,509.71527,333.0964,509.59186,333.12726,509.59186C333.1396,509.59186,333.18896,509.55484,333.23834,509.50754C333.41934,509.3368,333.55096,509.2319,333.60858,509.2072C333.64148,509.1928,333.7073,509.14963,333.75256,509.1085C333.79987,509.0694,333.85745,509.0365,333.8801,509.0365C333.9048,509.0365,333.97058,509.01385,334.02612,508.98712C334.0837,508.9604,334.1701,508.9254,334.21948,508.911C334.3038,508.88635,334.3285,508.86578,334.48892,508.69916L334.5609,508.62305L334.5671,508.07385C334.56915,507.77148,334.57123,507.48352,334.57123,507.43622C334.56915,507.30252,334.6247,507.25726,335.22736,506.9076C335.3076,506.8603,335.46185,506.7348,335.58322,506.61755C335.7025,506.50443,335.85678,506.3625,335.93085,506.30286C336.0995,506.16296,336.37512,505.87708,336.54587,505.6652C336.6199,505.57263,336.74332,505.4204,336.81943,505.32788C336.89758,505.2353,337.0642,505.00082,337.1917,504.8095C337.44885,504.42282,337.4879,504.37552,337.9816,503.8469C338.11322,503.70703,338.15027,503.71112,338.51022,503.9024C338.55957,503.92917,338.63568,503.93533,338.88046,503.9333C339.32886,503.9333,339.47284,503.91476,339.53867,503.85306C339.5798,503.81396,339.5901,503.78723,339.586,503.7317C339.57776,503.62473,339.49136,503.57538,339.26715,503.54453C338.97714,503.5075,338.9792,503.5075,338.95245,503.4355C338.91544,503.3306,338.8208,503.1537,338.80435,503.1537C338.79614,503.1537,338.76733,503.11874,338.73853,503.07553C338.7118,503.0344,338.6542,502.9624,338.611,502.91714C338.56985,502.8719,338.4732,502.7423,338.40118,502.63123C338.2387,502.38235,338.11734,502.25278,337.96103,502.16843C337.8952,502.13348,337.8088,502.08203,337.76767,502.05325C337.65247,501.9751,337.5558,501.96893,337.13824,502.01416C337.0498,502.0224,336.9881,502.01624,336.89142,501.98535C336.6816,501.91956,336.6446,501.91544,336.56644,501.95453 Z"/> </g> </g> </svg>