<?xml version='1.0' encoding='utf-8'?>
<svg xmlns="http://www.w3.org/2000/svg" version="1.1" width="600px" height="976px" viewBox="0 0 600 976"> <g id="layer1"> <g> <g style="fill:rgb(0,0,0); fill-opacity:1.0; stroke-linejoin: miter"> <path d="M501.44733,432.57605C501.20563,432.6597,501.20563,432.74335,501.1963,434.80713C501.187,435.8297,501.1777,435.8948,500.92673,436.22015C500.7129,436.49905,500.6943,436.592,500.76868,436.7965C500.91742,437.19626,500.87094,438.23743,500.67572,438.9347C500.57346,439.28793,500.4898,439.77136,500.4898,440.00375C500.4898,440.23615,500.4247,440.5429,500.34106,440.70096C500.00638,441.3331,499.932,441.76074,499.88553,443.31323C499.79257,446.2973,499.76468,446.6134,499.52298,447.02243C499.40213,447.22693,499.2255,447.46866,499.13254,447.5523C498.9187,447.73825,498.2401,447.97995,497.4685,448.1473C497.16174,448.21234,496.40875,448.38898,495.79517,448.55634C495.18164,448.71436,494.5216,448.8817,494.31708,448.93747C494.12186,448.98395,493.84296,449.0862,493.6942,449.16058C493.55478,449.23495,493.32236,449.30002,493.19223,449.30002C493.06207,449.30002,492.80176,449.3651,492.60657,449.44876C492.42065,449.53244,492.03018,449.63467,491.75128,449.67188C491.4724,449.71835,491.05408,449.8113,490.82166,449.88565C490.17093,450.09952,489.58527,450.22964,488.12573,450.47134C487.38205,450.6015,486.54538,450.74094,486.26648,450.7874C485.9876,450.8432,485.57858,450.8804,485.36475,450.8804C485.15094,450.8804,484.7326,450.94543,484.43512,451.0198C484.13763,451.09418,483.41254,451.18716,482.82687,451.21506C482.2412,451.25223,481.6834,451.31732,481.5998,451.3638C481.5068,451.40097,481.11636,451.48465,480.72592,451.5311C480.32617,451.58688,479.90784,451.68915,479.7963,451.76352C479.67545,451.8379,479.5174,451.90298,479.44305,451.90298C479.36865,451.90298,479.034,452.05173,478.69003,452.22833C478.19733,452.48862,477.96494,452.563,477.59308,452.5537C476.84937,452.54443,474.72052,452.78613,474.4881,452.90698C474.3766,452.97202,474.02332,453.04642,473.71655,453.08362C473.39117,453.1115,473.0844,453.20447,473.00073,453.28812C472.90778,453.38107,472.60098,453.45544,472.19196,453.49265C470.40704,453.65067,466.66995,454.26422,465.44287,454.59888C463.18384,455.21246,460.3392,455.8167,459.72565,455.8167C458.70306,455.8074,457.91287,455.99332,457.1692,456.41165C456.99255,456.51392,456.54633,456.55112,455.3471,456.55112C453.8783,456.55112,453.74817,456.5604,453.5901,456.73703C453.49713,456.8393,453.3391,456.92294,453.23685,456.92294C453.13458,456.92294,452.97656,456.97873,452.9022,457.0531C452.6326,457.2762,451.88892,457.50864,451.6007,457.45282C451.4427,457.41568,451.1173,457.45282,450.8756,457.5272C450.32712,457.69455,449.78793,457.70383,449.65778,457.5458C449.602,457.4807,449.49045,457.12747,449.41608,456.75565C449.34174,456.37448,449.193,455.93756,449.0907,455.7795C448.75604,455.24033,449.23016,454.93356,449.76007,455.3426C450.05753,455.57498,450.16907,455.57498,450.9035,455.324C451.3776,455.14737,451.49844,455.073,451.49844,454.91498C451.49844,454.74765,451.42407,454.71045,451.02435,454.66397C450.76404,454.6268,450.45728,454.5431,450.3457,454.47806C450.24347,454.4037,449.99243,454.32,449.79724,454.2828C449.5741,454.24564,449.3975,454.13406,449.29523,453.98532C449.14648,453.76224,449.1558,453.72504,449.31384,453.41827C449.49976,453.08362,450.03894,452.5537,450.20627,452.5537C450.5874,452.5537,451.49844,451.37308,451.49844,450.8804C451.49844,450.62006,451.39618,450.64798,451.0801,450.97333C450.93137,451.12207,450.77335,451.25223,450.72687,451.25223C450.68967,451.25223,450.5967,451.308,450.52234,451.37308C450.45728,451.44745,450.14117,451.55902,449.82513,451.62408C449.32312,451.73566,449.23944,451.72635,449.1093,451.5962C448.94196,451.42883,449.00702,451.12207,449.38818,450.3226C449.56482,449.96936,449.6392,449.895,449.9181,449.8578C450.50375,449.77414,451.1173,449.12338,451.76804,447.90558C452.21426,447.0689,452.24216,446.93875,452.24216,445.86038C452.23285,444.67978,452.17706,444.53104,451.6565,444.28003L451.359,444.1313L451.3869,443.35968C451.46124,441.40747,450.96857,438.41406,450.48517,437.93066C450.42938,437.8749,450.3829,437.76334,450.3829,437.67038C450.3829,437.5867,450.29922,437.41937,450.20627,437.28925C450.104,437.1684,449.99243,436.95456,449.96457,436.81512C449.92737,436.68497,449.8437,436.52695,449.76935,436.46185C449.69495,436.4061,449.6392,436.30383,449.6392,436.24808C449.6392,436.07144,449.0907,435.3277,448.72815,434.99304C448.21686,434.52826,447.594,434.14713,447.14777,434.03552C446.93396,433.97977,446.72943,433.9054,446.70157,433.8589C446.6458,433.75665,445.93927,433.43127,445.177,433.1617C444.47977,432.9107,443.99634,432.8828,443.43857,433.07803C443.0946,433.19885,443.00165,433.19885,442.65768,433.07803C442.416,432.99435,441.92328,432.93857,441.34692,432.93857C440.39868,432.93857,440.00824,433.0501,439.4226,433.50565C439.30176,433.6079,439.1437,433.68225,439.07864,433.68225C438.74396,433.68225,436.47568,435.73676,436.0945,436.3782C436.01086,436.53622,435.89932,436.6571,435.86212,436.6571C435.82495,436.6571,435.78775,436.73148,435.78775,436.82443C435.78775,436.9174,435.73196,437.06613,435.6576,437.1684C435.46237,437.45657,435.07193,438.52567,435.00687,438.9347C434.97897,439.1392,434.84882,439.70624,434.7187,440.18967C434.45837,441.1844,434.4119,442.27203,434.59784,443.369L434.70007,444.02902L434.4398,444.24286C434.1795,444.44736,434.1702,444.48456,434.18878,445.17245C434.21667,446.1021,434.51416,447.05963,435.30435,448.72366C435.56464,449.28143,435.98297,449.66257,436.49426,449.8113C436.84753,449.90427,436.9219,450.0437,437.28445,451.25223C437.3402,451.42883,437.44247,451.6427,437.50757,451.71707C437.6749,451.92157,437.83295,452.8326,437.73068,453.08362C437.647,453.3067,437.60052,453.3346,437.17288,453.42755C436.97766,453.47403,436.9126,453.5484,436.87543,453.7808C436.84753,453.94815,436.73596,454.3758,436.62442,454.73834C436.4013,455.47275,436.31763,455.79813,436.1317,456.5976C436.05734,456.90436,435.9272,457.2948,435.8435,457.46216C435.71338,457.71313,435.66687,457.74106,435.47168,457.67596C435.35083,457.62946,434.89532,457.5179,434.45837,457.43427C433.75186,457.28552,433.631,457.22974,433.32422,456.91367C432.98956,456.55112,432.97098,456.55112,432.29236,456.55112C431.82755,456.55112,431.49286,456.6069,431.30695,456.69986C431.01877,456.8486,431.00946,456.8486,430.82355,456.5883C430.72128,456.43954,430.47958,456.15137,430.29364,455.95615L429.95898,455.5843L429.09442,455.54712C428.2671,455.50992,427.29095,455.64935,427.1794,455.826C427.08643,455.97473,426.696,455.89108,423.88852,455.15668C422.32675,454.74765,419.6773,454.0597,418.00397,453.62277C413.94153,452.5723,412.5192,452.1168,412.00787,451.70773C411.87775,451.6148,411.73828,451.5311,411.69183,451.5311C411.64532,451.5311,411.49658,451.45676,411.35715,451.3545C410.05566,450.46204,409.65594,450.30402,408.4381,450.146C408.08487,450.1088,407.83386,450.01584,407.68512,449.87637C407.56427,449.76483,407.42484,449.67188,407.36905,449.67188C407.32257,449.67188,407.20172,449.5882,407.10876,449.48593C407.0158,449.38367,406.87634,449.30002,406.80197,449.30002C406.7369,449.30002,406.56027,449.22562,406.4301,449.1327C406.13266,448.92816,405.16583,448.50055,404.80328,448.41684C404.66382,448.3797,404.52438,448.3146,404.49652,448.26813C404.46863,448.22168,404.37564,448.18445,404.292,448.18445C404.2083,448.18445,403.92944,448.08218,403.66913,447.95206C403.41815,447.8312,403.14856,447.71967,403.07416,447.71967C402.99982,447.71967,402.86966,447.66388,402.7953,447.5988C402.7116,447.5244,402.39554,447.38498,402.08878,447.2734C401.5496,447.08752,401.18704,446.99454,399.5788,446.65057C399.16974,446.5669,398.64914,446.43677,398.41675,446.3624C398.18433,446.28802,397.89615,446.23224,397.766,446.23224C397.5522,446.23224,397.11526,446.1114,395.90674,445.70236C395.67435,445.628,395.26532,445.52573,394.98642,445.48856C394.71683,445.44208,394.38217,445.3677,394.24274,445.3212C394.11255,445.26544,393.64777,445.15387,393.21082,445.0702C392.7739,444.97726,392.24402,444.84708,392.0209,444.78204C391.8071,444.70767,391.5282,444.6519,391.41666,444.6519C391.30508,444.6519,391.12848,444.5961,391.0262,444.52173C390.92395,444.45667,390.69153,444.36368,390.51492,444.32654C390.3383,444.2893,390.10587,444.20566,390.0036,444.1499C389.90137,444.0848,389.61316,444.00116,389.36218,443.97327C389.11118,443.93604,388.80438,443.8431,388.69284,443.76874C388.572,443.69437,388.34888,443.62927,388.20013,443.62927C388.0514,443.62927,387.8097,443.58282,387.66095,443.527C387.18686,443.3504,384.7698,442.71823,383.71933,442.50446C383.26382,442.4022,383.1244,442.42078,382.5666,442.5974C382.21335,442.69968,381.89728,442.7926,381.8508,442.7926C381.80432,442.7926,381.42316,443.02502,381.00482,443.31323C380.03802,443.97327,379.21994,444.8285,378.42047,445.99985C377.84412,446.8458,377.02603,447.93344,376.6077,448.3797C376.39386,448.6121,376.18936,448.891,376.16147,449.00253C376.12427,449.1141,376.0313,449.20706,375.95697,449.20706C375.88257,449.20706,375.8268,449.29074,375.8268,449.39297C375.8268,449.49524,375.88257,449.5789,375.94766,449.5789C376.17078,449.5789,376.93307,451.41028,376.94235,451.99594C376.95166,452.3585,377.1283,453.065,377.28632,453.3439C377.3421,453.44617,377.41647,453.67856,377.45364,453.8552C377.54663,454.2921,377.89056,454.68256,378.46695,455.00793C378.72723,455.15668,378.98755,455.33328,379.03403,455.39838C379.17346,455.5657,380.98624,456.45816,381.20935,456.45816C381.26514,456.45816,381.41388,456.52322,381.52542,456.5883C381.63696,456.66266,381.89728,456.75565,382.1018,456.7835C382.44574,456.8393,382.49222,456.82068,382.69675,456.55112C383.07788,456.03052,383.15225,454.66397,382.8455,454.0411C382.7804,453.91095,382.6131,453.39038,382.47363,452.8791C382.25983,452.0982,382.23193,451.81,382.25983,451.1128C382.297,450.39697,382.3342,450.22034,382.548,449.90427C383.19876,448.94675,383.54272,448.50983,383.95175,448.1566C384.20273,447.95206,384.46304,447.636,384.5281,447.46866C384.63968,447.20834,384.70474,447.1619,384.96503,447.1619C385.42984,447.17117,386.72205,447.5616,387.00092,447.7847C387.066,447.84048,387.22403,447.9149,387.3542,447.95206C387.4843,447.98926,387.65167,448.0729,387.726,448.13797C387.8004,448.20306,387.97705,448.27744,388.1165,448.3146C388.25592,448.3425,388.42325,448.43546,388.50693,448.50983C388.5813,448.5842,388.69284,448.64926,388.74863,448.64926C388.8137,448.64926,389.01822,448.73294,389.20413,448.8259C389.39008,448.92816,389.8084,449.14197,390.14307,449.30002C390.73804,449.5882,391.16565,449.8113,391.44452,449.96936C391.51892,450.00653,391.7513,450.12738,391.9558,450.22964C392.16034,450.3319,392.39276,450.45276,392.46713,450.49924C392.74603,450.67587,394.40076,451.43817,394.4937,451.43817C394.5495,451.43817,394.63315,451.49396,394.67035,451.5497C394.74472,451.67984,396.35297,452.48862,396.7434,452.6002C396.87357,452.6374,397.05948,452.73035,397.16174,452.7954C397.264,452.86978,397.40344,452.92557,397.48712,452.92557C397.5615,452.92557,397.7846,453.00925,397.9798,453.1115C398.16574,453.21375,398.39813,453.2974,398.50043,453.2974C398.59338,453.2974,398.7235,453.35318,398.7793,453.42755C398.84436,453.50192,399.0303,453.5949,399.18832,453.63205C399.34637,453.65997,399.56946,453.74365,399.67175,453.81802C399.90414,453.95743,401.93073,454.67325,402.5071,454.8034C402.7395,454.8592,402.9905,454.95215,403.06488,455.0172C403.13925,455.0823,403.37164,455.17523,403.57617,455.21246C403.7807,455.2496,404.03168,455.33328,404.13394,455.3891C404.2362,455.45413,404.4872,455.5378,404.6917,455.57498C404.88696,455.61218,405.17514,455.69586,405.31458,455.77023C405.454,455.8446,405.64923,455.90036,405.7422,455.90036C405.84445,455.90036,406.03967,455.99332,406.17914,456.1049C406.4301,456.3001,406.4301,456.3187,406.39294,457.1089C406.36505,457.5458,406.29068,458.00134,406.23492,458.11285C406.16983,458.23373,406.08618,458.70786,406.04898,459.18195C406.01178,459.65604,405.92813,460.13016,405.87234,460.24173C405.80728,460.3533,405.7608,460.6043,405.7608,460.7995C405.7608,461.2643,405.5098,462.87256,405.32385,463.53262C405.2123,463.94165,405.19373,464.43436,405.22162,465.90317L405.2588,467.7531L405.55627,468.31088C405.90955,468.99878,406.16052,469.1754,406.90424,469.3056C407.2203,469.3614,407.59216,469.46362,407.7316,469.5287C407.87103,469.60306,408.07556,469.65887,408.1964,469.65887C408.31726,469.65887,408.56827,469.74255,408.7635,469.8448C408.9494,469.94705,409.2004,470.0307,409.31195,470.0307C409.43283,470.0307,409.63733,470.08646,409.7675,470.16083C409.89764,470.22595,410.2323,470.33746,410.5112,470.40256C410.79007,470.4676,411.16193,470.59778,411.33856,470.69073C411.5152,470.79297,411.7011,470.86737,411.7569,470.86737C411.81268,470.86737,412.10083,471.03473,412.40762,471.23923C412.71442,471.44373,412.9933,471.61108,413.0305,471.61108C413.06766,471.61108,413.2815,471.7319,413.50458,471.88995C414.15533,472.3269,415.2616,472.81958,415.58694,472.81958C415.91232,472.81958,417.41833,473.48892,417.53918,473.69342C417.61353,473.805,418.34796,474.2605,418.9801,474.59515C419.13812,474.66953,419.30545,474.809,419.35193,474.89264C419.39844,474.97632,419.4914,475.0507,419.56577,475.0507C419.74237,475.0507,419.9841,475.5341,419.9841,475.88736C419.9841,476.03607,420.04916,476.5846,420.12354,477.09586C420.27228,478.06265,420.6534,479.01093,421.28558,479.97772C421.43433,480.2101,421.60162,480.47974,421.64813,480.58197C421.75037,480.8051,423.59103,482.61783,424.1488,483.0362C424.4277,483.25,424.53925,483.40802,424.53925,483.57538C424.53925,483.78918,424.51138,483.80774,424.28827,483.75198C424.13953,483.71478,423.80484,483.65906,423.53528,483.63113C423.08905,483.58466,422.9682,483.61255,422.34534,483.92862C421.9642,484.12384,421.53656,484.39343,421.39713,484.5329C421.08105,484.85828,420.54187,485.18365,420.33734,485.18365C420.2444,485.18365,420.17,485.2208,420.17,485.26727C420.17,485.31378,420.04916,485.39743,419.8911,485.46252C419.74237,485.5276,419.61224,485.61127,419.61224,485.6577C419.61224,485.69495,419.53787,485.75067,419.4356,485.78787C419.16602,485.87155,418.7012,486.34564,418.00397,487.25668C417.89243,487.40546,417.7251,487.60065,417.64142,487.70288C417.54846,487.7959,417.4741,487.9074,417.4741,487.9353C417.4741,487.9632,417.33466,488.2235,417.16733,488.5117C417.00928,488.79987,416.7304,489.39484,416.56305,489.83173C416.39572,490.26868,416.2005,490.75208,416.13544,490.90082C416.07037,491.0589,415.9774,491.32843,415.94022,491.50507C415.903,491.6817,415.81937,491.91412,415.75427,492.01636C415.6892,492.11865,415.60553,492.35107,415.56836,492.5277C415.5312,492.7043,415.4475,492.94598,415.37314,493.0576C415.29877,493.16913,415.24298,493.30856,415.24298,493.37363C415.24298,493.42938,415.17792,493.60602,415.11285,493.76407C414.9734,494.06152,414.7038,494.79596,414.42493,495.59546C414.35056,495.82785,414.2297,496.07886,414.15533,496.1625C413.99728,496.35773,413.99728,496.9434,414.17392,497.25018C414.2483,497.38965,414.36914,497.66852,414.4435,497.87305C414.57367,498.26346,414.83395,498.9328,415.2151,499.9647C415.5312,500.77347,415.56836,501.17322,415.39172,501.52646C415.30807,501.6845,415.24298,501.9541,415.24298,502.1214C415.24298,502.28876,415.15933,502.99527,415.05707,503.68323C414.90833,504.6686,414.87115,505.31934,414.88974,506.70447C414.90833,508.11752,414.88043,508.58234,414.75958,509.02856C414.45282,510.13483,414.36914,511.2039,414.4807,512.5054C414.55505,513.3513,414.56436,514.0764,414.4993,514.99677C414.4435,515.70325,414.35983,517.03265,414.31335,517.953C414.26688,518.8733,414.18323,519.8773,414.13672,520.1841C414.09027,520.49084,414.04376,520.99286,414.04376,521.29034C414.0345,521.72723,413.988,521.8946,413.82996,522.06195C413.66263,522.2385,413.62543,522.3966,413.62543,522.9079L413.61615,523.53076L414.09955,524.02344C414.36914,524.28375,414.648,524.50684,414.7131,524.50684C414.78748,524.50684,414.91763,524.5905,415.0106,524.69275C415.10355,524.79504,415.2337,524.87866,415.29877,524.87866C415.36383,524.87866,415.4661,524.9624,415.52188,525.06464C415.57767,525.1669,415.67062,525.25055,415.72638,525.25055C415.78217,525.25055,415.91232,525.3156,415.99597,525.3993C416.08896,525.483,416.33997,525.56665,416.54446,525.5759C416.7583,525.5852,416.9628,525.6317,417.0,525.67816C417.10223,525.78973,417.31607,527.47235,417.33466,528.27185C417.34393,528.9598,417.41833,529.3037,417.61353,529.52686C417.67862,529.6012,417.76227,529.8057,417.79947,529.98236C417.83664,530.14966,417.9482,530.4844,418.05975,530.71674C418.16202,530.9585,418.30145,531.5534,418.36655,532.03687C418.4316,532.52026,418.53387,533.1896,418.58035,533.52423C418.63614,533.8589,418.68262,534.8536,418.68262,535.73676C418.68262,536.94525,418.7198,537.41003,418.81274,537.6053C418.88715,537.74475,418.9708,538.12585,419.008,538.4606C419.0359,538.7859,419.11954,539.2042,419.1939,539.38086C419.25897,539.5575,419.4449,540.0781,419.59363,540.5429C419.74237,540.9984,420.02127,541.77,420.2072,542.24414C420.39313,542.71826,420.54187,543.17377,420.54187,543.276C420.54187,543.369,420.62552,543.5177,420.72778,543.6107C420.83005,543.7036,420.9137,543.8338,420.9137,543.89886C420.9137,544.01044,421.26697,544.73553,421.4715,545.05164C422.13153,546.0556,422.7079,546.6134,423.37723,546.90155C424.28827,547.2827,425.06915,547.3757,425.4689,547.14325C425.59903,547.0689,425.81287,547.0131,425.943,547.0038C426.08243,547.0038,426.29626,546.92017,426.4264,546.8179C426.55655,546.71564,426.696,546.63196,426.75177,546.63196C427.02136,546.63196,428.11832,545.45135,428.31354,544.9586C428.34143,544.8843,428.40652,544.75415,428.453,544.67975C428.49948,544.60535,428.58313,544.43805,428.63892,544.3079C428.6947,544.17773,428.82483,543.90814,428.9178,543.69434C429.02005,543.4805,429.09442,543.21094,429.09442,543.0901C429.09442,542.96924,429.1595,542.6346,429.2339,542.3557C429.4477,541.5841,429.4384,538.76733,429.2339,537.8749C429.14093,537.50305,429.01077,537.0568,428.94568,536.88947C428.87134,536.72217,428.78766,536.4247,428.75977,536.22015C428.7226,536.0249,428.62033,535.7832,428.52734,535.6996C428.4251,535.6159,428.3507,535.42065,428.3507,535.28125C428.3507,535.13245,428.202,534.74207,428.01605,534.3981C427.6814,533.7752,427.39322,533.0501,427.21658,532.3622C427.1608,532.15765,427.05853,531.8788,426.99347,531.7393C426.9191,531.5999,426.82614,531.0886,426.77966,530.6052C426.6588,529.3688,426.75177,529.062,427.26306,529.062C428.01605,529.062,428.77835,528.0673,429.28967,526.43115C429.50348,525.7247,429.62433,525.5759,429.87534,525.67816C429.9776,525.71533,430.01477,526.4126,430.05194,529.6477C430.08914,532.8177,430.12634,533.68225,430.24716,534.1285C430.33084,534.43524,430.3959,534.91864,430.3959,535.1975C430.3959,535.7739,430.65622,537.21484,431.01877,538.5907C431.24188,539.4738,431.25116,539.5947,431.19537,541.0077C431.1582,541.8258,431.09314,543.0622,431.03735,543.7501C430.99088,544.43805,430.9258,546.34375,430.89792,547.9799C430.84213,550.9547,430.85144,551.07556,431.23257,556.2257C431.27905,556.82996,431.372,557.49927,431.43707,557.71313C431.59515,558.2523,431.58585,561.38513,431.4278,561.9708C431.26978,562.50073,431.1582,563.94165,431.05594,566.7584C430.96298,569.16614,430.85144,570.37463,430.60043,571.6854C430.47958,572.3362,430.44238,573.04266,430.44238,574.9391C430.44238,577.3097,430.44238,577.3654,430.6655,577.7745C430.9258,578.2672,431.20468,578.5647,431.48358,578.6483C431.67877,578.7134,432.3481,579.4478,432.3481,579.60583C432.3481,579.7546,432.84082,580.16364,433.27777,580.37744C433.77045,580.6284,433.83554,580.70276,433.83554,581.084C433.83554,581.34424,433.15692,582.81305,432.8966,583.1384C432.84082,583.1942,432.80365,584.003,432.80365,584.9512C432.80365,586.2992,432.76645,586.84766,432.60843,587.6099C432.4411,588.4373,432.4318,588.6511,432.52475,589.20886C432.58054,589.56213,432.627,590.3151,432.627,590.8915C432.627,591.8676,432.64563,591.9606,432.9152,592.49976C433.07324,592.8065,433.32422,593.2156,433.46368,593.3922C433.60312,593.56885,433.77045,593.8198,433.83554,593.95C434.22598,594.6844,435.89932,596.2369,436.76385,596.6552C437.08923,596.81323,437.60983,596.97125,438.01886,597.02704C439.01355,597.1665,439.153,597.1944,439.08792,597.29663C439.05075,597.3524,439.36682,597.3896,439.9246,597.3896C440.4173,597.3896,440.79846,597.3524,440.77057,597.3059C440.6869,597.1758,440.90997,597.04565,441.31903,596.9806C442.53683,596.77606,442.70416,596.70166,443.20618,596.209C443.46646,595.94867,443.68958,595.6698,443.68958,595.59546C443.68958,595.52106,443.81042,595.2236,443.95917,594.9354C444.3496,594.201,444.6192,593.16907,444.6192,592.4347C444.6192,591.74677,444.41467,591.1518,443.82904,590.1571C443.6524,589.85034,443.50366,589.5436,443.50366,589.4692C443.50366,589.4041,443.42926,589.1996,443.3363,589.02295C443.23407,588.8463,443.1318,588.56744,443.0946,588.4187C443.05743,588.2607,442.97375,588.0747,442.9087,588.00037C442.83432,587.926,442.75995,587.74005,442.72278,587.60065C442.65768,587.3218,441.8861,586.2434,441.33762,585.64844C440.85422,585.1371,440.6311,584.60724,440.64972,584.04944C440.659,583.75195,440.6032,583.4359,440.49167,583.1756C440.32434,582.81305,440.31503,582.748,440.4452,582.5342C440.62183,582.2088,440.82632,582.1809,441.412,582.3761C441.8861,582.54346,441.8954,582.54346,442.72278,582.2925C443.17828,582.153,443.6245,582.01355,443.7082,581.995C443.79184,581.9671,444.02423,581.79047,444.22876,581.60455C444.58203,581.2792,444.60062,581.2234,444.63782,580.60986C444.66568,580.2473,444.74936,579.81964,444.833,579.6616C445.03754,579.28046,445.0468,578.2207,444.8609,578.0627C444.78656,577.99756,444.69357,577.81165,444.66568,577.6536C444.62848,577.48627,444.54486,577.2911,444.47977,577.2167C444.41467,577.14233,444.33102,576.975,444.29382,576.84485C444.25665,576.7147,444.17297,576.54736,444.1079,576.473C444.04285,576.3986,443.78253,575.9152,443.53156,575.40393C443.27124,574.89264,442.91797,574.2512,442.73206,573.98157C442.43457,573.52606,442.3974,573.39594,442.3416,572.63367C442.28583,571.91785,442.31372,571.64825,442.48108,570.9882C442.78784,569.7983,442.9087,567.5207,442.77853,565.4569C442.72278,564.53656,442.62982,563.65344,442.57404,563.4861C442.37878,562.9562,442.6205,561.0133,442.95517,560.3998C443.04816,560.2138,443.1318,560.0,443.1318,559.92566C443.1318,559.842,443.18756,559.7025,443.25266,559.6003C443.32703,559.498,443.42926,559.247,443.48505,559.0425C443.53156,558.83795,443.6245,558.5405,443.6803,558.3917C443.8662,557.85254,444.05212,556.8021,444.1637,555.64935C444.25665,554.65466,444.24734,554.2549,444.1079,552.8605C444.02423,551.968,443.93127,551.20575,443.9127,551.1686C443.8848,551.13135,443.82904,550.7967,443.78253,550.4248C443.73608,550.053,443.6431,549.57886,443.58734,549.3744C443.4944,549.0583,443.50366,548.93744,443.6152,548.6771C444.05212,547.70105,444.24734,546.84576,444.34033,545.56287C444.3775,544.9307,444.44257,544.36365,444.47046,544.3172C444.50766,544.2707,444.56342,543.7873,444.60992,543.2481C444.65637,542.5881,444.73077,542.2069,444.82373,542.1047C444.90738,542.0117,445.00037,541.8351,445.03754,541.70496C445.0747,541.5748,445.1584,541.4075,445.22345,541.3331C445.28854,541.2587,445.3629,541.09143,445.3908,540.96124C445.4187,540.8311,445.50235,540.515,445.57672,540.26404C445.6511,540.0037,445.76263,539.2321,445.81842,538.5442C445.8742,537.8563,445.98578,537.0568,446.06012,536.77795C446.1345,536.499,446.1996,536.1365,446.1996,535.98773C446.1996,535.8297,446.28323,535.46716,446.3855,535.1697C446.48773,534.8815,446.5714,534.491,446.5714,534.3144C446.5714,534.1285,446.6272,533.86816,446.70157,533.72876C446.76663,533.5893,446.8503,533.2639,446.8875,533.01294C446.92468,532.7526,447.00836,532.3622,447.0827,532.12976C447.26865,531.5441,447.50104,529.8708,447.50104,529.15497C447.51035,528.8203,447.54755,528.25323,447.6033,527.9C447.64978,527.5374,447.73346,526.82166,447.77994,526.29175C447.82642,525.7711,447.8822,525.30634,447.9101,525.2598C447.938,525.2134,448.01236,524.55334,448.0681,523.8003C448.1239,523.038,448.22617,522.27576,448.30054,522.0991C448.37488,521.93176,448.43066,521.6157,448.43066,521.40186C448.43066,521.1974,448.48645,520.9092,448.56082,520.7698C448.6352,520.6396,448.73746,520.3886,448.7932,520.212C448.8862,519.9145,449.29523,519.57983,449.54623,519.57983C449.6113,519.57983,449.78793,519.52405,449.94598,519.44965C450.11328,519.3846,450.48517,519.2731,450.77335,519.2173C451.18237,519.1336,451.3869,519.02203,451.67508,518.7339C451.88892,518.53864,452.10272,518.37134,452.14917,518.37134C452.20496,518.37134,452.24216,518.31555,452.24216,518.2505C452.24216,518.1761,452.3258,518.04596,452.42807,517.953C452.53033,517.86,452.614,517.7485,452.614,517.70197C452.614,517.6555,452.77203,517.2836,452.97656,516.856L453.32983,516.09375L453.37628,514.3739C453.40417,513.42566,453.3949,512.4403,453.3577,512.18933C453.3205,511.929,453.19965,511.05515,453.0881,510.23706C452.97656,509.419,452.82782,508.4429,452.75342,508.07104C452.67908,507.6992,452.614,507.23438,452.614,507.04846C452.614,506.8532,452.53033,506.37912,452.42807,505.998C452.3258,505.61682,452.24216,505.15204,452.24216,504.9568C452.24216,504.76157,452.17706,504.48267,452.10272,504.33392C452.02832,504.18518,451.9261,503.78546,451.87958,503.4508C451.83313,503.1068,451.74945,502.7815,451.70294,502.72568C451.6565,502.6606,451.5728,502.42822,451.51703,502.1958C451.46124,501.96338,451.3497,501.56366,451.26605,501.31268C451.18237,501.05237,451.00574,500.49457,450.8756,500.05765C450.74545,499.62073,450.5874,499.13733,450.51303,498.9886C450.22485,498.38434,450.0761,497.64063,450.03894,496.7017C450.00177,495.75348,450.01105,495.6977,450.24347,495.35373C450.48517,495.0098,450.49445,494.95398,450.43866,494.16382C450.3922,493.541,450.4015,493.29926,450.50375,493.14124C450.57813,493.03897,450.65247,492.7415,450.68036,492.4812C450.72687,492.09076,450.79193,491.9792,451.08942,491.7375C451.2846,491.58878,451.67508,491.2262,451.96326,490.9473C452.24216,490.65912,452.77203,490.185,453.1253,489.87823C453.48785,489.58075,453.96198,489.12524,454.19437,488.88354C454.5848,488.4652,454.72424,488.3629,455.4308,488.0004C455.57022,487.92603,455.68176,487.82376,455.68176,487.77728C455.68176,487.73077,455.78403,487.64716,455.91418,487.60065C456.0443,487.55414,456.14658,487.4798,456.14658,487.43332C456.14658,487.38684,456.25812,487.29388,456.3883,487.21948C456.52774,487.15442,456.81592,486.85696,457.02972,486.57806C457.24353,486.2992,457.52243,485.9552,457.64328,485.82507C457.76413,485.69495,457.91287,485.5183,457.95935,485.4439C458.01514,485.36957,458.21967,485.05347,458.41486,484.756C458.6194,484.4585,458.8518,484.09598,458.95404,483.9565C459.04703,483.81708,459.1214,483.64044,459.1214,483.5661C459.1214,483.4917,459.16788,483.39874,459.21436,483.37085C459.27014,483.33368,459.391,483.15704,459.49323,482.9711C459.5955,482.7852,459.76282,482.497,459.8558,482.33893C459.94876,482.1809,460.19046,481.74402,460.38568,481.36285C460.79474,480.56335,461.03644,480.2473,461.59418,479.7732C461.81732,479.58728,462.15198,479.25256,462.3286,479.02948C462.50525,478.8064,462.70975,478.56467,462.77484,478.4903C462.8399,478.41592,462.95148,478.23,463.02582,478.09058C463.15598,477.83026,463.63007,477.36548,464.03912,477.09586C464.15997,477.02148,464.3831,476.86346,464.54114,476.7426C464.69916,476.63104,464.9037,476.5381,464.98734,476.5381C465.0803,476.5381,465.17328,476.50092,465.21045,476.45444C465.2755,476.34286,467.8506,475.07858,468.17596,474.9949C468.3061,474.967,468.41766,474.90195,468.41766,474.85547C468.41766,474.81827,468.5943,474.73462,468.81738,474.67883C469.0312,474.62305,469.338,474.5208,469.48672,474.4464C469.94226,474.2419,471.0764,473.8422,471.21582,473.8422C471.29022,473.8422,471.50403,473.75848,471.69925,473.65625C471.88516,473.55396,472.12686,473.47034,472.22913,473.47034C472.3314,473.47034,472.5452,473.38666,472.71252,473.2844C472.87988,473.18213,473.12158,473.09845,473.23312,473.09845C473.35397,473.09845,473.5678,473.03342,473.69794,472.95905C473.8374,472.88464,474.1349,472.7824,474.36725,472.7359C474.59967,472.68015,475.16675,472.54068,475.62225,472.41052C476.0871,472.28967,476.72852,472.11304,477.06317,472.02942C477.39786,471.9364,477.7511,471.80627,477.8534,471.7412C477.95563,471.66687,478.0951,471.61108,478.17874,471.61108C478.5227,471.60175,478.59708,471.44373,478.67145,470.5234C478.7644,469.38928,478.82947,466.3122,478.83878,462.52863L478.83878,459.6189L479.0712,459.34927C479.2478,459.1355,479.40582,459.06113,479.787,459.01462C480.0473,458.97745,480.37268,458.86588,480.49353,458.77292C480.61438,458.67062,480.8003,458.59628,480.91183,458.59628C481.0234,458.59628,481.16284,458.5498,481.21863,458.49405C481.35806,458.35458,482.2226,458.00134,483.2917,457.64807C483.7751,457.49005,484.25848,457.3041,484.36078,457.22974C484.463,457.16467,484.63037,457.1089,484.7326,457.1089C484.83487,457.1089,485.0487,457.0252,485.19745,456.92294C485.35547,456.82068,485.59717,456.73703,485.73663,456.73703C485.88535,456.73703,486.11774,456.67197,486.2479,456.5976C486.5082,456.45816,487.3263,456.15137,487.98633,455.94687C488.19083,455.89108,488.5162,455.77023,488.70212,455.68655C488.89734,455.5936,489.10187,455.5285,489.16693,455.5285C489.2413,455.5285,489.37146,455.47275,489.4737,455.39838C489.576,455.33328,489.80838,455.24033,489.985,455.20316C490.16162,455.16595,490.35687,455.10086,490.40332,455.06372C490.5335,454.96146,492.06738,454.3758,492.72742,454.1713C493.03418,454.0783,493.38745,453.92957,493.5083,453.8366C493.62915,453.74365,493.78717,453.66928,493.86154,453.66928C493.9359,453.66928,494.14972,453.5949,494.33566,453.49265C494.5216,453.39966,494.82837,453.26025,495.005,453.17654C495.18164,453.1022,495.5163,452.95346,495.74872,452.8512C495.98108,452.74893,496.4552,452.53513,496.81778,452.3678C497.17102,452.20975,497.5243,452.02383,497.60794,451.95874C497.6823,451.88437,497.84967,451.80072,497.9798,451.76352C498.10995,451.72635,498.31445,451.6148,498.4353,451.52182C498.55615,451.41956,498.77,451.34518,498.9187,451.34518C499.05817,451.34518,499.19763,451.308,499.2255,451.26154C499.2534,451.21506,499.4672,451.13138,499.70892,451.0756C500.2388,450.93616,501.29858,450.41556,501.6704,450.09952C501.82843,449.96936,501.9865,449.8578,502.03296,449.8578C502.07016,449.8578,502.16312,449.79272,502.24677,449.72763C502.33044,449.65326,502.59076,449.4116,502.84174,449.19775C503.08347,448.98395,503.34375,448.69574,503.4181,448.5656C503.83643,447.81262,504.14325,447.0689,504.2269,446.5855C504.28265,446.27875,504.38495,446.00912,504.45,445.98123C504.63593,445.90686,504.63593,443.8338,504.45,443.68506C504.2548,443.527,503.80856,441.8816,503.80856,441.30524C503.80856,441.02634,503.90152,440.53363,504.01306,440.21756C504.2269,439.58542,504.2548,439.21356,504.11536,438.851C503.9759,438.46988,503.4925,438.51633,503.12064,438.9347C502.9626,439.11133,502.80457,439.37158,502.7674,439.51105C502.7023,439.79922,502.5536,440.00375,502.43274,440.00375C502.38623,440.00375,502.28397,439.9015,502.2096,439.7806C502.08875,439.604,502.07947,439.48315,502.1538,439.19498C502.2375,438.8696,502.3955,435.71817,502.38623,434.51892C502.38623,433.93326,502.05157,432.8456,501.80988,432.6318C501.6983,432.53882,501.58673,432.52026,501.44733,432.57605 Z M447.1571,520.2027C447.092,520.22125,446.96188,520.22125,446.8782,520.2027C446.78525,520.1748,446.841,520.1562,446.98975,520.1562C447.14777,520.1562,447.21286,520.1748,447.1571,520.2027 Z"/> </g> </g> </g> </svg>