<?xml version='1.0' encoding='utf-8'?>
<svg xmlns="http://www.w3.org/2000/svg" version="1.1" width="600px" height="976px" viewBox="0 0 600 976"> <g id="layer1"> <g style="fill:rgb(0,0,0); fill-opacity:1.0; stroke-linejoin: miter"> <path d="M262.23242,422.94922C262.44684,422.94922,262.51834,423.0922,262.44684,423.30664C262.35156,423.49725,262.20856,423.66406,262.08942,423.66406C261.97028,423.66406,261.875,423.49725,261.875,423.30664C261.875,423.11603,262.04178,422.94922,262.23242,422.94922 Z M259.37305,421.28125C259.0871,421.28125,258.3246,421.68634,257.68124,422.1629C255.63202,423.71173,254.24998,424.9508,254.24998,425.2129C254.24998,425.3797,254.46445,426.18985,254.75037,427.07147C255.38332,429.11093,256.80035,430.5277,258.13934,430.5277C258.1614,430.5277,258.18344,430.5273,258.20544,430.52655C259.30154,430.4789,260.0879,429.93085,259.6828,429.45428C259.516,429.23987,259.516,429.04922,259.73047,428.81094C259.94492,428.52502,259.89725,428.38202,259.516,428.0246C258.87265,427.47656,258.89648,427.21448,259.5875,426.54727C260.0879,426.0707,260.1117,425.92773,259.92108,424.784C259.7781,424.09296,259.73047,423.04456,259.80194,422.40118C259.89725,421.3766,259.8496,421.28125,259.37305,421.28125 Z M298.89948,441.75818Q298.91162,441.78476,298.924,441.8113L298.924,441.8113C298.90662,441.8083,298.88937,441.80542,298.87222,441.80273L298.86923,441.80273L298.89648,441.75818 Z M329.02347,443.43173C329.05505,443.43173,329.0703,443.45895,329.0703,443.51288C329.0703,443.56055,328.83203,443.79883,328.54608,444.06094L327.99805,444.51367L328.45074,443.96564C328.75836,443.60678,328.94342,443.43173,329.02347,443.43173 Z M344.21878,427.06116Q344.21405,427.06116,344.2095,427.06137L344.20877,427.0614Q344.04178,427.09198,344.03717,427.12454Q344.02435,427.1426,344.01178,427.1602L344.00836,427.1602C343.83084,427.24142,343.6052,427.46667,343.43866,427.81018C343.3843,427.92728,343.33508,428.02747,343.28894,428.1122L343.2855,428.1122L343.18185,428.1842Q343.12012,428.23438,343.07217,428.30292L342.9684,428.48123L342.965,428.48123C342.93488,428.49203,342.90375,428.4972,342.87094,428.4972C342.80017,428.4972,342.72162,428.47314,342.62848,428.4297C342.52954,428.3764,342.44278,428.34744,342.36115,428.34744C342.18723,428.34744,342.03677,428.47897,341.84216,428.7871C341.62772,429.09686,341.46094,429.43048,341.46094,429.50195C341.46094,429.5973,340.84137,430.93164,340.10272,432.5043C339.00504,434.78577,338.72388,435.2592,338.3461,435.2592C338.30563,435.2592,338.26407,435.25375,338.22028,435.24454C338.12656,435.22034,338.03705,435.2092,337.9532,435.2092C337.50818,435.2092,337.2217,435.52292,337.30457,435.86685L337.30118,435.86685Q337.14578,436.07236,336.98785,436.42746Q336.93936,436.535,336.92694,436.60956Q336.89996,436.8215,336.89282,436.93777L336.88947,436.93777C336.85703,437.04526,336.82523,437.18637,336.7906,437.36523C336.6953,437.91327,336.74295,438.3422,336.90973,438.50897C336.9175,438.51675,336.92523,438.52417,336.93283,438.53125L336.92947,438.53125Q336.9365,438.65225,336.9553,438.7781Q336.9853,439.02692,337.22623,439.4626L337.22287,439.4626L337.37683,440.16168L337.37683,440.16168C337.1533,440.1358,336.8221,440.07925,336.5285,440.01016C336.31476,439.96518,336.12756,439.9414,335.9895,439.9414C335.83514,439.9414,335.7422,439.9711,335.7422,440.034C335.7422,440.6297,337.00507,443.8465,337.57693,444.7758C338.04166,445.5038,338.35532,445.80893,338.90417,445.80893C339.1996,445.80893,339.56314,445.72055,340.05505,445.56213C341.47305,445.1096,342.1366,444.82892,342.16663,444.6174L342.1632,444.6174Q342.3275,444.4934,342.3744,444.3863Q342.61313,444.03888,342.7829,443.72733L342.77948,443.72733C342.9971,443.59735,343.1289,443.3832,343.1289,443.10782C343.1289,443.04517,343.12747,442.9868,343.12445,442.93265L343.12103,442.93265Q343.12567,442.9162,343.13007,442.8999Q343.202,442.6373,343.0403,442.39716Q342.92767,442.1207,342.5517,441.78494Q342.52548,441.76056,342.49384,441.73523L342.4904,441.73523Q342.5923,441.4883,342.74133,441.13858Q342.7774,441.04898,342.89545,440.88037L343.11502,440.41504L343.151,440.19922Q343.22705,440.01862,343.31995,439.51352L343.434,439.1262L343.4607,438.7896L343.5327,438.51505L343.5367,438.48044L343.5333,438.48044C343.80768,438.0332,344.03888,437.26862,344.43945,435.69727C344.51602,435.41882,344.57224,435.17902,344.60934,434.97784L344.6059,434.97784Q344.619,434.94507,344.63113,434.90402L344.6277,434.90402Q344.76663,434.66003,344.79752,434.57263Q344.9417,434.26096,344.99307,433.91925Q344.99884,433.9143,345.08176,433.31058Q345.08463,433.29385,345.0886,433.25256L345.08514,433.25256C345.3215,432.7022,345.5056,431.8551,345.46405,431.2176L345.39258,430.2168L345.35483,430.27533L345.35483,430.27533Q345.34683,430.23038,345.33667,430.1754Q345.30673,429.89987,345.27927,429.7705Q345.234,429.53134,345.15762,429.3257Q345.12967,429.2608,345.0516,429.2533L345.04813,429.2533L345.07883,428.84518L345.05432,428.29907Q345.05667,428.2786,345.0146,428.05603L344.8699,427.56982Q344.8515,427.51007,344.82764,427.46008Q344.6974,427.2509,344.62265,427.2177Q344.3492,427.06116,344.21878,427.06116 Z M303.62195,471.06714C302.54306,471.74844,301.84784,472.38107,301.6203,472.89297C301.47925,473.17508,301.37943,473.30255,301.25305,473.30255C301.1873,473.30255,301.11432,473.268,301.0246,473.20276C300.5957,472.84534,300.6195,472.5832,301.2152,471.77307L301.2378,471.7408L301.2348,471.7408Q302.3756,471.42062,303.6189,471.06714 Z M296.89993,472.93823C297.1951,473.10306,297.53058,473.30652,297.87927,473.53632C298.92773,474.20352,299.66638,474.79922,299.52344,474.84686C299.5141,474.84998,299.50262,474.8515,299.48914,474.8515C299.12943,474.8515,297.3387,473.77167,296.40088,473.07272L296.39792,473.07272Q296.6436,473.00674,296.89697,472.93823 Z M261.7358,420.81335C261.485,420.81335,261.12155,421.0339,260.6836,421.47186C260.04022,422.11523,260.0164,422.23438,260.13553,423.6879C260.2785,425.35587,261.08865,427.38126,261.92264,428.0961C262.16962,428.31955,262.2947,428.43274,262.33798,428.43274C262.3824,428.43274,262.3407,428.3136,262.25623,428.07227C262.1371,427.81018,262.01794,427.1668,261.94647,426.64258C261.85114,425.83243,261.92264,425.59415,262.4707,425.02228C262.89813,424.60672,263.2309,424.39822,263.35992,424.3968L263.36258,424.3968C263.4888,424.39822,263.41055,424.60672,263.01874,425.02228C262.18475,425.95157,262.08942,426.33282,262.42303,427.88165C262.70898,429.1922,262.80426,429.33514,266.35468,432.88556C268.38007,434.88712,271.00116,437.36523,272.21637,438.36603C273.40778,439.39063,274.64685,440.4391,274.98047,440.725C278.03046,443.36993,280.22266,445.1332,281.31873,445.84805C282.03357,446.30078,282.91522,446.99182,283.29645,447.34924L283.9875,448.01642L283.86835,454.02112C283.72537,460.47852,283.91602,462.64688,284.79764,464.6961C285.04724,465.27335,285.22537,465.5748,285.39883,465.68738L285.396,465.68738L285.1832,474.12415L285.18036,474.12415C284.92847,474.65656,285.03763,475.63202,285.2027,477.49182C285.32184,479.13593,285.51248,481.82852,285.58398,483.44882C285.65546,485.09296,285.82227,486.54648,285.9652,486.7133C286.16293,486.95752,287.48468,487.07687,288.84146,487.07687C290.26443,487.07687,291.72595,486.94562,291.9699,486.68945C292.232,486.42734,292.32733,485.73633,292.32733,483.7824C292.3035,481.5664,292.42264,480.89923,293.04218,478.89764C293.44727,477.63477,293.85233,475.91913,293.92383,475.08514C293.9655,474.59866,294.02344,474.0879,294.07864,473.68518L294.07568,473.68518Q294.32672,473.62045,294.58908,473.55203L294.59204,473.55203C294.53397,473.8322,294.48547,474.1873,294.44803,474.60858C294.35272,475.51407,293.94763,477.325,293.54254,478.61172C292.94684,480.5418,292.78006,481.51874,292.68475,483.94922C292.61328,485.59335,292.44647,487.0707,292.3035,487.2375C292.16943,487.40988,291.68127,487.4899,290.61624,487.4899C290.3563,487.4899,290.06198,487.4851,289.73004,487.47577L287.3711,487.4043L287.3711,488.11914C287.3711,488.5004,287.60938,489.73944,287.87146,490.85938C288.13358,491.9793,288.51483,493.88556,288.70544,495.1246C288.89606,496.36368,289.1582,497.53125,289.27734,497.76953C289.39648,497.98398,289.56326,499.0086,289.65857,500.05704C289.82538,502.20157,291.7793,510.08868,292.25586,510.63672C292.42264,510.82733,292.8039,511.8043,293.08984,512.78125C293.37576,513.7582,293.85233,514.99725,294.1621,515.5215C294.44803,516.0457,294.87695,517.0703,295.11523,517.78516C295.35352,518.5,295.85388,519.7152,296.23514,520.4539C297.18826,522.384,297.35504,524.7668,296.68787,526.6969C296.116,528.341,296.06836,529.41327,296.52106,530.48553C296.90234,531.43866,298.4273,532.7969,299.07068,532.7969C299.35663,532.7969,300.0,533.03516,300.50037,533.3211L301.4297,533.84534L303.57422,532.7731C304.74176,532.2012,305.7664,531.5578,305.8379,531.3434C305.90936,531.1289,306.26678,530.8906,306.6242,530.81915C307.0531,530.7238,307.482,530.3187,307.93475,529.6039C308.53046,528.62695,308.60193,528.36487,308.45898,527.3402C308.36365,526.6969,307.98242,525.4816,307.57733,524.64764C306.9578,523.38477,306.81482,522.7414,306.67188,520.5254C306.48123,517.80896,305.6949,512.8766,305.2422,511.73282C305.12305,511.3754,305.0039,510.73203,305.0039,510.32697C305.0039,509.63593,304.59882,506.6336,304.02692,503.13086C303.90778,502.34454,303.78864,500.41446,303.78864,498.8418C303.76483,495.60117,304.19373,485.73633,304.432,483.63947C304.59882,482.13828,304.81326,481.90002,306.81482,480.89923L307.79178,480.39883L307.95856,481.49493C308.03006,482.09064,308.10156,483.11523,308.10156,483.73477C308.10156,484.73553,308.2207,485.04532,309.00702,485.90314C309.48358,486.42734,310.34137,487.09454,310.91327,487.33282C311.4613,487.5711,311.91406,487.85703,311.91406,487.97617C311.91406,488.07147,311.58044,488.38126,311.19922,488.691C310.79413,488.97696,310.29373,489.57266,310.07928,490.0254C309.69803,490.83554,309.69803,490.83554,311.0324,493.45663C312.17615,495.64883,312.4859,496.53046,312.96246,498.91327C313.55817,501.98712,314.4875,504.10782,315.8695,505.56134C316.3494,506.0665,316.79584,506.31732,317.2443,506.31732C317.64197,506.31732,318.04123,506.1201,318.4668,505.72812C319.20544,505.06094,319.20544,505.10858,318.56207,500.27148C318.41913,499.08008,318.22852,497.48358,318.13318,496.69727L317.99023,495.26758L316.6797,495.24374C314.0586,495.2199,313.89178,495.10077,313.2484,493.05157C312.93866,492.05078,312.60504,490.54962,312.50977,489.71564L312.34296,488.23828L313.03397,488.23828C313.3914,488.23828,314.17773,488.4051,314.74957,488.61954C315.20563,488.77155,315.48376,488.84897,315.73047,488.84897C315.98648,488.84897,316.20862,488.7656,316.56055,488.5957C316.98944,488.4051,317.5613,488.23828,317.82343,488.23828C318.0855,488.23828,318.82422,487.76172,319.46756,487.18985C320.4207,486.33203,320.7066,485.85547,321.13553,484.5211C321.92188,482.04297,321.99335,480.9469,321.6836,477.27734C321.46912,474.68008,321.46912,473.20276,321.6836,470.65314C321.92188,467.9129,321.898,466.93594,321.58826,464.5055C321.3738,462.81366,320.99255,461.0504,320.6828,460.26407C320.20624,459.14417,319.99176,458.88202,319.18164,458.5246C318.28033,458.15445,317.08557,457.94733,316.1186,457.94733C315.65393,457.94733,315.24185,457.99518,314.94022,458.0957C314.3555,458.3021,313.03845,459.09183,312.24326,459.67664Q312.23495,459.6234,312.2265,459.56985L312.22632,459.56848L304.4392,466.43768L304.0629,463.7268L304.05984,463.7268C304.5378,463.5172,304.76785,463.0902,304.90857,462.36096C305.0277,461.7176,305.1707,461.55078,305.5996,461.55078C306.09998,461.55078,307.625,460.14493,307.625,459.66837C307.625,459.57306,308.26834,458.95352,309.0785,458.33398C309.8648,457.71448,310.88943,456.6422,311.366,455.92737C311.93787,455.06952,312.43826,454.59296,312.96246,454.42618C313.36755,454.30704,315.53592,454.14026,317.75195,454.0926C319.99176,454.02112,322.18396,453.8543,322.63672,453.71133C323.08942,453.56836,324.47147,453.33008,325.6867,453.21094C327.42615,453.02032,328.06952,452.85352,328.66522,452.4008C329.09412,452.091,331.40546,450.68518,333.83594,449.30313C336.2664,447.89728,338.36328,446.6344,338.48242,446.4914C338.59048,446.38333,338.61853,446.3253,338.5795,446.32373L338.5761,446.32373C338.55408,446.32452,338.5143,446.34042,338.45856,446.37225C338.43494,446.38586,338.40884,446.3925,338.38046,446.3925C337.66446,446.3925,335.5039,442.19098,335.5039,440.70117C335.5039,440.28564,335.3751,440.08484,335.14658,440.08484C334.7854,440.08484,334.17514,440.58652,333.43085,441.53516C332.83514,442.32147,332.2871,442.96484,332.23944,442.96484C332.19177,442.96484,332.3109,442.6551,332.5254,442.25C332.716,441.86877,332.8828,441.51135,332.8828,441.43985C332.8828,441.42532,332.86832,441.41818,332.83987,441.41818C332.5882,441.41818,331.24463,441.97766,329.18945,442.94104C327.7121,443.63202,325.80585,444.2516,324.28082,444.51367C324.08356,444.5502,323.9087,444.56882,323.748,444.56882C323.38458,444.56882,323.0936,444.47366,322.77966,444.2754C322.47388,444.07596,322.27194,443.9804,321.9959,443.9804C321.7772,443.9804,321.51196,444.0404,321.1117,444.15625C320.7066,444.2635,320.41473,444.3171,320.17047,444.3171C319.92624,444.3171,319.72968,444.2635,319.5152,444.15625C319.22928,443.98944,318.34766,443.70352,317.58514,443.53674C317.00015,443.39847,316.64307,443.3219,316.34854,443.3219C315.98325,443.3219,315.71423,443.43967,315.22614,443.70352C314.77103,443.9311,314.4857,444.0398,314.27386,444.0398C314.1308,444.0398,314.02127,443.99023,313.9156,443.89417C313.71558,443.72748,312.62936,443.60742,311.75815,443.60742C311.38394,443.60742,311.0494,443.62958,310.8418,443.6797C310.75754,443.69653,310.4946,443.7134,310.1877,443.7134C310.0606,443.7134,309.92593,443.7105,309.79333,443.70352C309.12616,443.6797,309.0547,443.63202,309.2691,443.3461C309.5074,443.06018,309.45975,442.94104,309.0785,442.72656C308.91168,442.64316,308.78662,442.60144,308.70322,442.60144C308.6198,442.60144,308.57813,442.64316,308.57813,442.72656C308.57813,442.8457,308.45898,442.96484,308.31598,442.96484C308.17303,442.96484,308.12537,442.7504,308.2207,442.4168C308.2778,442.20264,308.2921,442.09113,308.26367,442.08743L308.2606,442.08743C308.2407,442.08978,308.20355,442.1356,308.1492,442.2262C308.05847,442.34283,307.9889,442.4031,307.92126,442.4031C307.8646,442.4031,307.80933,442.36078,307.74414,442.27383C307.68967,442.1649,307.61185,442.11044,307.52405,442.11044C307.45816,442.11044,307.3867,442.14108,307.31522,442.20233C307.07144,442.39737,306.29565,442.55914,305.87985,442.55914C305.68597,442.55914,305.57037,442.52396,305.6234,442.4406C305.6949,442.34534,305.5996,442.03555,305.40897,441.77344L305.07538,441.29688L304.64648,441.77344C304.4082,442.03555,304.12225,442.25,304.0031,442.25C303.6695,442.25,303.78864,441.70197,304.2652,441.20157C304.59882,440.84415,304.76563,440.27228,304.81326,439.31915C304.82175,439.0564,304.84528,438.80872,304.87747,438.59863L304.87442,438.59863Q304.95947,438.55045,305.04562,438.49182Q305.29535,438.3579,305.45258,438.08923Q305.46127,438.06433,305.46527,438.03653Q305.4683,437.9243,305.5087,437.72876Q305.5152,437.57144,305.5362,437.39514Q305.54376,437.17593,305.51025,436.97403Q305.4916,436.85062,305.3966,436.435L305.39355,436.435L305.42896,436.1129Q305.4449,435.99402,305.4628,435.89713L305.45975,435.89713C305.55756,435.85687,305.6069,435.68988,305.62228,435.3197L305.61923,435.3197Q305.62637,435.28577,305.63196,435.25345Q305.6586,435.09616,305.67313,434.93414L305.7143,434.3073L305.7599,433.82227Q305.76874,433.72247,305.81174,433.4913Q305.82178,433.42044,305.82834,433.34955Q305.8302,433.33032,305.83218,433.30637L305.82913,433.30637C305.85367,433.27512,305.88043,433.25385,305.90936,433.24298C306.07617,433.1953,306.1953,432.8141,306.1953,432.36133C306.1953,431.16528,306.40588,430.27554,306.6726,430.27554C306.70346,430.27554,306.73505,430.28745,306.76715,430.31213C306.83667,430.36954,306.89392,430.39554,306.93973,430.39554C307.25507,430.39554,307.02823,429.16394,306.52887,428.47736C306.38434,428.29666,306.19107,428.10382,305.9768,427.91803L305.97375,427.91803Q305.96866,427.86972,305.96298,427.81894L305.75278,427.0966Q305.72028,427.0032,305.63422,426.91617L305.1549,426.53204L304.79807,426.18695L304.22992,425.72687L303.10455,425.01736Q302.86368,424.92477,302.48334,424.71683L302.10516,424.5506L302.10214,424.5506C301.91098,424.39893,301.7209,424.26407,301.54883,424.16446C300.9814,423.8051,299.8285,423.56586,298.82892,423.56586C298.56918,423.56586,298.3198,423.582,298.09375,423.6164C297.3789,423.71173,295.94922,424.40274,295.94922,424.66486C295.94922,424.784,295.7824,424.85547,295.56793,424.85547C295.37732,424.85547,295.282,424.9746,295.35352,425.11758C295.54413,425.42737,294.82928,426.26135,294.13824,426.52344C293.44727,426.78555,292.9707,428.57266,292.9707,430.90784C292.9707,432.21838,293.06598,432.8379,293.28046,432.88556C293.44727,432.95703,293.5664,433.4098,293.5664,434.0055C293.5664,434.67267,293.7332,435.24454,294.04297,435.6496C294.30505,435.98322,294.51953,436.36444,294.51953,436.48358C294.51953,436.7163,294.64542,436.8609,294.81635,436.89792L294.8134,436.89792Q294.7905,437.0307,294.758,437.27902Q294.74338,437.3808,294.74454,437.4844Q294.74933,437.56723,294.7534,437.64136L294.75046,437.64136C294.73755,437.6518,294.72412,437.663,294.71014,437.675C294.49567,437.8418,294.1859,438.29456,294.0191,438.69962C293.66168,439.58124,293.97147,441.13007,294.9246,443.15546C295.47266,444.32306,295.49646,444.51367,295.25818,446.01483C295.13904,446.89648,294.94843,448.30237,294.87695,449.16016L294.7578,450.70898L295.2105,449.63672C295.47266,449.04102,295.68707,448.37384,295.68707,448.13556C295.71094,447.92108,295.8062,447.73047,295.90155,447.73047C296.09216,447.73047,296.807,446.27698,297.85547,443.79883C298.11462,443.20074,298.34042,442.85287,298.4631,442.85287C298.48706,442.85287,298.50708,442.86612,298.52264,442.89337C298.60114,443.03076,299.1323,443.15198,299.79654,443.21707L299.79355,443.21707Q299.91446,443.35248,300.00766,443.42474Q300.11948,443.49506,300.2943,443.49506Q300.39685,443.49506,300.52106,443.47086Q300.53122,443.4815,300.54855,443.4815Q300.62433,443.4815,300.83722,443.27856L300.84024,443.27856L301.7871,443.32227L300.71484,443.63202C300.11914,443.79883,299.3328,444.0133,298.92773,444.10858L298.2129,444.29922L299.16602,444.609C299.69022,444.79962,300.21442,445.01407,300.35742,445.1332C300.4143,445.20148,300.40057,445.23172,300.32663,445.23172C300.24567,445.23172,300.09253,445.19547,299.88086,445.1332C299.01782,444.8644,298.4656,444.73,298.15936,444.73C297.94986,444.73,297.85547,444.79294,297.85547,444.91876C297.85547,445.08557,297.52185,445.8719,297.14063,446.6582C296.3781,448.20703,296.40192,448.2547,297.92694,448.73126C298.4035,448.8742,298.8086,449.08868,298.8086,449.20782C298.8086,449.28436,298.74356,449.32028,298.62714,449.32028C298.3449,449.32028,297.76074,449.10934,297.06912,448.75507C296.74478,448.5929,296.45493,448.48248,296.34628,448.48248C296.32724,448.48248,296.31375,448.48587,296.30664,448.49298C296.25897,448.54065,295.85388,449.49377,295.40115,450.6375L294.591,452.73438L295.73474,452.87735C296.3781,452.97266,296.90234,453.13947,296.90234,453.2586C296.90234,453.34225,296.7497,453.3789,296.51855,453.3789C296.09122,453.3789,295.39563,453.25354,294.90076,453.068C294.8634,453.05347,294.82782,453.04617,294.79404,453.04617C294.4401,453.04617,294.28125,453.84735,294.28125,455.52228L294.28125,456.99963L295.425,457.14258C297.25977,457.38086,297.33124,457.45233,295.8062,457.4762C294.49567,457.5,294.3289,457.54767,294.1859,458.02423C293.9953,458.73907,293.9953,459.8828,294.1859,460.83594L294.35272,461.59845L295.6156,461.5031C295.8447,461.4802,296.05914,461.46954,296.24475,461.46954C296.63828,461.46954,296.90234,461.5175,296.90234,461.59845C296.90234,461.69376,296.6402,461.78906,296.33044,461.78906C296.0207,461.78906,295.425,461.86053,295.0199,461.93204C294.28125,462.075,294.28125,462.09882,294.28125,463.6C294.28125,463.77805,294.28342,463.9496,294.28775,464.10925L294.28482,464.10925L293.5448,464.22568C293.53943,464.0582,293.52997,463.85953,293.51874,463.62384L293.44727,462.14648L292.01758,462.02734C290.8023,461.9082,290.68317,461.86053,291.25507,461.69376C291.49338,461.63022,291.80582,461.58786,292.0794,461.58786C292.2162,461.58786,292.34323,461.59842,292.44647,461.62225C292.5979,461.6643,292.72855,461.68857,292.8418,461.68857C293.3701,461.68857,293.52014,461.161,293.63788,459.45392L293.78082,457.5L292.375,457.5C290.54022,457.5,290.49255,457.0711,292.32733,456.97577L293.68555,456.9043L293.75702,455.06952L293.8285,453.23477L292.61328,453.068C291.18042,452.8726,291.07285,452.55853,292.27237,452.55826L292.2753,452.55826C292.3916,452.5583,292.52014,452.56125,292.66092,452.56757C292.9,452.57675,293.09293,452.5842,293.24985,452.5842C293.90616,452.5842,293.93216,452.4543,294.06677,451.78125C294.1621,451.32852,294.30505,450.39923,294.37653,449.7082L294.51953,448.49298L293.32813,448.32617C292.68475,448.23087,292.13672,448.0879,292.13672,447.99258C292.13672,447.94232,292.27597,447.91193,292.50198,447.91193C292.70444,447.91193,292.97647,447.93628,293.28046,447.99258C293.6935,448.05612,294.0748,448.0879,294.29718,448.0879C294.40833,448.0879,294.4798,448.07996,294.49567,448.0641C294.63867,447.94495,294.97223,445.8719,294.97223,445.08557C294.9961,444.51367,294.9246,444.4422,294.0191,444.4422C293.47107,444.41837,292.9707,444.37073,292.8992,444.29922C292.8277,444.22772,293.16132,444.15625,293.63788,444.15625C294.11444,444.15625,294.54333,444.06094,294.6148,443.9418C294.6863,443.82266,294.44803,443.13165,294.06677,442.4168C293.4949,441.34454,293.3996,440.91565,293.4949,440.01016L293.63788,438.91406L292.8039,438.91406C292.32733,438.91406,291.82693,439.08087,291.66016,439.27148C291.47336,439.50223,291.30682,439.61646,291.18158,439.61646C291.03525,439.61646,290.9453,439.4605,290.9453,439.15234C290.9453,438.79492,290.7785,438.67578,290.30194,438.65198L289.63477,438.6281L290.23047,438.46133C290.8023,438.2707,290.8023,438.2707,289.87305,437.86563C289.4171,437.6791,288.9071,437.54666,288.65656,437.54666C288.61902,437.54666,288.58734,437.54965,288.5625,437.55585C288.52927,437.56415,288.48737,437.5681,288.43866,437.5681C288.2079,437.5681,287.8247,437.47913,287.49023,437.34143C286.94217,437.10315,286.89453,437.03165,287.25195,437.0078C287.60938,437.0078,287.657,436.96014,287.3949,436.79337C287.2809,436.71194,287.0668,436.67505,286.85138,436.67505C286.75156,436.67505,286.65146,436.68295,286.5609,436.69806C286.43008,436.73077,286.33856,436.74664,286.28534,436.74664C286.18344,436.74664,286.22195,436.68848,286.3941,436.57892C286.7992,436.29297,286.29883,436.10236,284.9406,436.00702C284.46405,435.98322,284.0828,435.86407,284.10663,435.74493C284.13043,435.6258,283.08203,434.83948,281.7953,434.0055C280.07965,432.90936,279.19803,432.48047,278.62616,432.48047C278.1496,432.48047,277.86365,432.38516,277.95898,432.2422C278.03046,432.12305,277.7445,431.8371,277.29178,431.59882C275.71912,430.76483,275.00427,430.2168,274.64685,429.5973C274.24176,428.90625,272.38318,427.26212,270.0957,425.5703C269.04724,424.784,268.14178,424.3789,266.7121,423.99768C265.89285,423.7758,265.24472,423.6517,264.96045,423.6517C264.84784,423.6517,264.79233,423.67117,264.80585,423.71173C264.82965,423.85468,264.7105,424.02148,264.5199,424.09296C264.47064,424.1053,264.42935,424.11124,264.39642,424.11124C264.3019,424.11124,264.27628,424.06216,264.32928,423.97382C264.5199,423.66406,263.63824,422.71094,263.16168,422.71094C262.61365,422.71094,262.11328,422.09143,262.11328,421.42422C262.11328,421.01605,261.9763,420.81335,261.7358,420.81335 Z M305.3513,533.33673C305.27563,533.33673,305.26364,533.4623,305.33746,533.70233C305.50427,534.22656,304.98004,535.7277,304.52734,536.0137C304.50635,536.02765,304.47717,536.0345,304.44092,536.0345C304.22998,536.0345,303.77972,535.8043,303.31207,535.41797C302.7059,534.9372,302.1639,534.6948,301.65594,534.6948C301.00577,534.6948,300.41132,535.0919,299.80936,535.89453C299.35663,536.49023,298.5703,537.44336,298.04608,538.03906C296.87848,539.3258,296.6402,539.89764,296.83084,541.0176C297.02148,542.1375,297.66483,542.5664,299.18982,542.5664C301.23904,542.5664,303.1453,541.4465,303.47888,540.0168C303.69336,539.1113,303.97928,538.8016,304.76563,538.63477C305.88553,538.3965,306.2906,537.7531,306.09998,536.44257C305.81403,534.1551,305.67108,533.5117,305.4328,533.3688C305.40063,533.3473,305.37326,533.33673,305.3513,533.33673 Z"/> </g> </g> </svg>
